<svg version="1.1" id="Layer_1" xmlns="http://www.w3.org/2000/svg" xmlns:xlink="http://www.w3.org/1999/xlink" x="0px" y="0px"
	 width="100%" viewBox="0 0 1024 1024" enable-background="new 0 0 1024 1024" xml:space="preserve">
<path fill="#000000" opacity="1.000000" stroke="none" 
	d="
M803.899780,870.823853 
	C792.319458,884.431396 777.472168,890.299377 760.384949,890.309692 
	C593.720581,890.410217 427.056183,890.387939 260.391785,890.358765 
	C235.279663,890.354309 215.486359,875.444275 208.528748,851.467773 
	C207.277496,847.155884 206.648514,842.716980 206.648727,838.194031 
	C206.658981,618.030334 206.647827,397.866638 206.668991,177.702942 
	C206.671478,151.816666 229.034073,129.644852 254.973953,129.645081 
	C379.805603,129.646118 504.637329,129.711777 629.468628,129.517593 
	C637.656189,129.504868 643.530212,132.054062 649.154480,137.954086 
	C699.518372,190.786926 751.324463,242.201614 803.027649,293.715698 
	C806.568481,297.243591 809.985718,300.904358 813.667358,304.277435 
	C814.953552,305.455872 815.329102,306.636993 815.330139,308.174255 
	C815.331421,310.007538 815.348145,311.840790 815.348206,313.674072 
	C815.349243,487.505066 815.307495,661.336060 815.433472,835.166992 
	C815.442993,848.352478 812.066223,860.084106 803.899780,870.823853 
M623.325317,295.011536 
	C618.739075,286.117859 616.618408,276.670044 616.634949,266.662598 
	C616.689819,233.501022 616.661255,200.339310 616.657837,167.177643 
	C616.656982,159.364288 616.644592,159.359802 608.770569,159.359497 
	C497.620667,159.355286 386.470734,159.352661 275.320831,159.348068 
	C271.656464,159.347916 268.023132,159.088577 264.364929,158.707077 
	C249.930283,157.201706 236.153976,164.995834 236.216507,183.053345 
	C236.496964,264.040161 236.332275,345.028503 236.333786,426.016296 
	C236.336334,562.329102 236.340240,698.641907 236.352921,834.954712 
	C236.354111,847.698853 243.721817,857.630554 255.519623,860.234863 
	C260.025909,861.229614 264.668823,861.706543 269.372925,861.704651 
	C417.350616,861.645691 565.328308,861.656555 713.306030,861.656372 
	C727.637207,861.656311 741.970398,861.807007 756.299011,861.614746 
	C775.665161,861.354980 786.639893,850.882751 786.642273,832.767212 
	C786.664124,664.959167 786.632202,497.151093 786.749634,329.343109 
	C786.753113,324.382294 785.116394,323.243073 780.439331,323.265076 
	C744.278931,323.435303 708.113342,323.679871 671.957642,323.234802 
	C651.100037,322.978058 634.302551,314.434296 623.325317,295.011536 
M645.340698,199.500183 
	C645.343689,220.143814 645.340454,240.787460 645.351501,261.431091 
	C645.362549,282.153473 656.584473,293.486908 677.428406,293.659088 
	C701.066589,293.854370 724.705627,293.974091 748.344482,294.014465 
	C752.549744,294.021637 756.786133,295.101898 760.055298,294.395874 
	C722.111694,256.174286 683.997681,217.781082 645.341248,178.841476 
	C645.341248,185.657196 645.341248,192.078781 645.340698,199.500183 
z"/>
<path fill="#000000" opacity="1.000000" stroke="none" 
	d="
M325.598999,448.984314 
	C324.957001,434.508728 327.783997,421.378357 335.269287,409.417755 
	C342.187653,398.363037 351.995575,391.203735 364.455994,387.362152 
	C377.798218,383.248688 391.238373,382.638458 404.700134,386.069794 
	C424.809509,391.195618 437.112976,404.881226 444.271790,423.690369 
	C449.220703,436.693146 450.909546,450.243500 451.582642,464.149292 
	C452.419678,481.442230 450.570007,498.282288 446.277313,514.923584 
	C444.025635,523.652527 440.467377,531.907959 435.963196,539.738220 
	C426.055420,556.962402 411.589874,567.329346 391.668365,570.235779 
	C373.263458,572.920959 356.615234,569.567261 342.088623,557.623657 
	C336.294250,552.859558 332.278503,546.768250 330.163483,539.550476 
	C328.191833,532.822021 330.221222,530.126892 337.141357,529.940308 
	C338.306732,529.908875 339.475128,529.970703 340.639526,529.924438 
	C348.973877,529.593750 355.666290,530.502686 362.811584,537.406128 
	C375.159088,549.335693 394.040314,546.529053 405.306915,531.094055 
	C413.312622,520.126404 416.032867,507.358124 416.790649,493.922211 
	C395.184814,507.392792 373.051605,508.367218 351.117554,496.399109 
	C332.959503,486.491333 325.130920,470.004211 325.598999,448.984314 
M366.774811,469.726685 
	C374.515778,476.574097 383.662415,478.260254 393.378265,476.041565 
	C404.040802,473.606628 412.316406,468.013824 415.169464,456.550262 
	C418.674927,442.465179 416.684021,429.641205 405.820465,419.352448 
	C394.065277,408.219299 376.629608,408.775452 365.892700,420.167297 
	C354.315613,432.450531 354.494965,456.825928 366.774811,469.726685 
z"/>
<path fill="#000000" opacity="1.000000" stroke="none" 
	d="
M547.342773,566.096191 
	C546.140320,555.409424 546.696411,545.083923 546.765686,534.779846 
	C546.795898,530.288879 545.277405,529.182007 541.000244,529.156860 
	C520.369751,529.035889 499.741058,528.606140 479.112000,528.272034 
	C469.652802,528.118896 468.124664,526.086365 467.529205,516.834351 
	C466.881714,506.773804 469.315552,498.317322 475.179871,489.868317 
	C497.372162,457.895020 518.236023,425.014221 540.560974,393.119507 
	C543.338867,389.150909 546.551697,387.380249 551.401306,387.568207 
	C557.545471,387.806305 563.713318,387.493774 569.869263,387.348480 
	C575.529907,387.214905 577.354919,388.851898 577.328552,394.650970 
	C577.174744,428.447632 579.162415,462.225922 578.242188,496.022156 
	C578.106384,501.010254 580.145874,502.367096 584.529846,502.690460 
	C597.630371,503.656769 597.452454,503.759521 598.576233,516.317017 
	C599.588928,527.634216 598.877136,532.456482 584.517883,530.463928 
	C580.734314,529.938843 579.093079,531.099915 579.243958,535.283447 
	C579.537842,543.433594 579.360107,551.602173 579.310608,559.762695 
	C579.259827,568.132507 577.022034,570.328674 568.519714,570.349854 
	C563.691956,570.361877 558.856079,570.382996 554.039124,570.119812 
	C551.421448,569.976868 548.599365,569.663818 547.342773,566.096191 
M536.452454,501.658936 
	C547.614929,501.656403 547.615173,501.656403 547.648376,490.532654 
	C547.651367,489.532867 547.645081,488.533020 547.651184,487.533264 
	C547.730408,474.536896 547.761597,461.539948 547.912964,448.544403 
	C547.985474,442.320648 549.330200,436.113007 548.248535,429.114990 
	C531.954773,452.867615 516.338806,476.218475 501.449860,501.659149 
	C513.868958,501.659149 524.667175,501.659149 536.452454,501.658936 
z"/>
<path fill="#000000" opacity="1.000000" stroke="none" 
	d="
M545.477600,729.131165 
	C524.774902,730.122314 528.851868,727.829834 528.764099,713.729126 
	C528.625183,691.404907 528.778870,669.078735 528.833069,646.753418 
	C528.848511,640.381714 530.516479,638.692139 536.705444,638.654785 
	C539.870728,638.635681 543.040039,638.586914 546.200989,638.713806 
	C549.614807,638.850769 552.453125,639.939575 553.074158,644.594910 
	C561.936951,635.527710 572.488464,635.499390 583.401062,637.649658 
	C588.774780,638.708435 593.353699,641.416382 596.878967,645.663818 
	C598.705444,647.864441 600.043396,647.742310 602.115967,645.738525 
	C612.567932,635.633423 628.654785,633.423584 641.313049,640.502625 
	C650.989441,645.914124 655.004028,655.203064 655.166260,665.556885 
	C655.458557,684.203674 655.758728,702.848938 656.248657,721.492432 
	C656.409302,727.607056 654.689331,729.277832 648.688599,729.339233 
	C645.190063,729.375061 641.684082,729.199219 638.193787,729.370300 
	C634.122314,729.569946 632.560486,727.866455 632.604492,723.773132 
	C632.751404,710.112366 632.623962,696.448914 632.678833,682.786743 
	C632.701660,677.096985 632.014648,671.493225 630.639465,666.008179 
	C629.289856,660.624817 625.557800,657.671814 620.381836,657.355713 
	C613.760498,656.951172 608.895752,659.348511 606.730164,664.416016 
	C605.156677,668.097656 604.409729,671.974854 604.299255,676.052124 
	C603.902100,690.720154 605.283630,705.337341 605.348145,719.989441 
	C605.384094,728.162659 604.327576,729.320984 596.296753,729.347351 
	C594.130737,729.354431 591.964722,729.357849 589.798767,729.346008 
	C582.636963,729.306763 580.771606,727.464661 580.729492,720.088806 
	C580.659058,707.759644 580.529236,695.427734 580.722168,683.101624 
	C580.806091,677.735107 580.029785,672.480164 579.549377,667.190002 
	C579.097290,662.211487 575.360168,658.622925 570.152649,657.505981 
	C564.327332,656.256531 558.343872,658.501648 555.826782,663.169922 
	C553.594116,667.310730 552.430298,671.762756 552.308411,676.547974 
	C551.955811,690.384460 553.117126,704.180115 553.235168,718.001282 
	C553.298462,725.405762 551.983826,727.377258 545.477600,729.131165 
z"/>
<path fill="#000000" opacity="1.000000" stroke="none" 
	d="
M650.814453,506.979065 
	C650.705994,481.000885 650.607361,455.518768 650.487061,430.036713 
	C650.485718,429.749603 650.202454,429.463806 649.878235,428.851379 
	C647.167786,428.944855 645.197449,430.877350 643.043518,432.234833 
	C636.705078,436.229523 630.476624,440.421173 623.492920,443.245667 
	C616.040710,446.259705 612.462524,443.415894 611.536255,435.481018 
	C610.130188,423.434662 612.958862,414.842102 624.904358,408.984802 
	C635.270142,403.902161 644.253418,396.085480 653.385864,388.839600 
	C655.415283,387.229401 657.508484,386.384735 660.238525,386.522034 
	C665.544861,386.788940 670.878174,386.487335 676.189758,386.692932 
	C682.077881,386.920868 684.073853,389.132172 684.319946,395.119324 
	C684.354126,395.950897 684.335388,396.784821 684.335571,397.617645 
	C684.345642,451.753632 684.356934,505.889587 684.362732,560.025574 
	C684.363647,568.019531 682.784119,569.808655 674.928833,570.060608 
	C669.605652,570.231323 664.268066,570.126648 658.941956,569.971497 
	C654.781128,569.850281 652.945312,567.719421 652.571838,563.357056 
	C650.979248,544.753418 652.369263,526.069153 650.814453,506.979065 
z"/>
<path fill="#000000" opacity="1.000000" stroke="none" 
	d="
M321.018555,631.315918 
	C308.115631,631.324585 308.115936,631.324585 308.154449,643.622192 
	C308.167480,647.785217 308.324829,651.954590 308.145660,656.109375 
	C307.995117,659.600525 309.406494,660.756287 312.844330,660.707764 
	C323.666199,660.555237 334.491760,660.623108 345.315613,660.673157 
	C351.955872,660.703918 353.011810,662.043518 353.453613,668.488220 
	C354.499329,683.741638 351.253143,681.222290 340.763641,681.296753 
	C331.938324,681.359436 323.105988,681.505249 314.289001,681.226929 
	C309.864227,681.087280 307.989838,682.216248 308.258850,687.039734 
	C308.851379,697.664612 308.964142,708.316650 309.246216,718.958313 
	C309.478485,727.719727 307.939178,729.294189 299.441956,729.357117 
	C282.676941,729.481262 284.718567,729.705139 284.659729,714.459045 
	C284.626984,705.966431 284.494904,697.470032 284.684570,688.981506 
	C285.194366,666.168579 283.518646,643.393311 283.648315,620.588745 
	C283.697479,611.939331 285.543671,609.910583 294.107056,609.864685 
	C312.923798,609.763855 331.741028,609.734680 350.558075,609.733948 
	C357.614746,609.733704 359.300842,611.519836 359.348053,618.650513 
	C359.425568,630.369080 359.410004,630.464355 347.481079,630.848267 
	C338.829712,631.126770 330.170715,631.167969 321.018555,631.315918 
z"/>
<path fill="#000000" opacity="1.000000" stroke="none" 
	d="
M449.337036,693.916870 
	C446.153137,709.334656 439.043579,721.438599 424.131866,727.300537 
	C398.487823,737.381348 373.152710,722.447449 368.699219,695.046875 
	C366.259979,680.039185 367.783386,665.812744 376.604553,653.118469 
	C385.759308,639.944153 399.180695,635.404785 414.520691,636.846252 
	C428.998688,638.206726 439.692474,645.507263 445.430603,659.400208 
	C449.987457,670.433105 451.746582,681.696167 449.337036,693.916870 
M411.034790,655.450439 
	C403.564240,655.143005 398.307770,658.711243 394.964111,665.095825 
	C388.762207,676.938232 388.622955,688.918152 394.820068,700.840698 
	C397.892487,706.751648 402.010132,711.227417 409.446930,710.849609 
	C416.838562,710.474060 421.383026,706.129150 424.029816,699.785828 
	C427.684814,691.026245 428.854645,681.899963 426.134583,672.601257 
	C423.871155,664.863647 420.532013,657.936462 411.034790,655.450439 
z"/>
<path fill="#000000" opacity="1.000000" stroke="none" 
	d="
M675.968018,646.961670 
	C691.556274,634.630554 710.858643,633.011963 726.077637,642.445251 
	C730.460876,645.162048 733.639832,648.851257 736.104858,653.324158 
	C738.012573,656.785828 736.874939,659.052856 733.646912,660.601318 
	C729.735596,662.477356 725.651428,663.832520 721.307556,664.347656 
	C718.072815,664.731262 715.877563,664.021362 713.980225,660.805786 
	C710.019348,654.093140 699.278564,653.480286 693.898865,659.225830 
	C691.220398,662.086426 691.673279,665.704102 695.127319,668.176941 
	C699.429932,671.257202 704.587769,672.202820 709.525330,673.590515 
	C715.130981,675.165833 720.812805,676.501892 726.117615,678.946350 
	C745.348389,687.808289 747.543091,710.900879 730.373169,723.322449 
	C715.139526,734.343262 686.448242,731.854431 673.376221,718.377991 
	C673.028198,718.019226 672.669861,717.669128 672.339905,717.294189 
	C665.201233,709.183167 666.206299,705.411377 676.382080,702.143921 
	C677.964600,701.635681 679.614258,701.296814 681.139282,700.656616 
	C685.490051,698.829956 688.446045,700.136353 690.496582,704.308716 
	C695.024841,713.522766 709.324402,713.618896 716.678223,707.154175 
	C719.961914,704.267517 719.660889,700.152039 716.165161,697.238525 
	C712.574341,694.245911 708.062561,693.463806 703.714355,692.425232 
	C696.428711,690.685059 689.189758,688.781921 682.407166,685.569458 
	C666.334473,677.957031 663.237976,659.988892 675.968018,646.961670 
z"/>
<path fill="#000000" opacity="1.000000" stroke="none" 
	d="
M462.667084,675.999878 
	C462.699188,666.180481 462.698151,656.860840 462.774872,647.541809 
	C462.836121,640.100830 464.431549,638.511414 472.002808,638.705200 
	C475.475433,638.794128 478.929413,639.460999 482.403534,639.683472 
	C486.449432,639.942444 485.940613,644.032166 487.914764,646.078552 
	C489.978912,645.949890 491.121368,644.334045 492.447815,643.220215 
	C498.802856,637.883728 506.308777,638.379761 513.815063,638.750427 
	C514.142212,638.766602 514.558289,638.782349 514.774780,638.975525 
	C520.125000,643.750427 517.753906,650.091003 517.940735,655.812683 
	C518.071838,659.824097 514.812439,660.924194 511.369415,661.053650 
	C508.712616,661.153625 506.037872,660.904480 503.389709,661.084229 
	C493.357391,661.765015 486.442017,668.919617 486.361176,678.930847 
	C486.245575,693.241455 486.137451,707.558350 486.457825,721.862915 
	C486.570862,726.909790 484.358185,728.767883 479.912292,729.183899 
	C479.746643,729.199402 479.580048,729.217957 479.414185,729.215820 
	C464.074860,729.015808 463.216858,731.753296 462.996613,713.937805 
	C462.842346,701.459106 462.774170,688.979248 462.667084,675.999878 
z"/>
</svg>