<svg version="1.1" id="Layer_1" xmlns="http://www.w3.org/2000/svg" xmlns:xlink="http://www.w3.org/1999/xlink" x="0px" y="0px"
	 width="100%" viewBox="0 0 1024 1024" enable-background="new 0 0 1024 1024" xml:space="preserve">
<path fill="#000000" opacity="1.000000" stroke="none" 
	d="
M217.634842,870.272949 
	C210.055267,859.656982 206.546173,848.354309 206.554718,835.479736 
	C206.699692,616.850647 206.756180,398.221436 206.516418,179.592575 
	C206.490311,155.788620 224.783203,135.247925 246.675568,130.967178 
	C248.451660,130.619873 250.319611,130.658691 252.144897,130.658524 
	C379.456390,130.646317 506.767853,130.664108 634.079285,130.576401 
	C638.046692,130.573669 640.893127,131.797211 643.812134,134.439117 
	C670.153992,158.280518 693.715332,184.883118 718.929871,209.842773 
	C748.644470,239.256989 777.917603,269.117432 807.660583,298.502625 
	C813.139160,303.915283 815.541931,309.310333 815.531128,317.196808 
	C815.292969,491.166595 815.216248,665.137024 815.504578,839.106689 
	C815.543762,862.740051 796.231995,885.652527 771.985413,889.440308 
	C767.674438,890.113770 763.404785,890.376892 759.078674,890.376831 
	C593.107178,890.375549 427.135651,890.356567 261.164154,890.409973 
	C243.595673,890.415588 229.182678,883.941711 217.634842,870.272949 
M678.506958,324.355316 
	C677.007812,324.355804 675.507935,324.324310 674.009705,324.361450 
	C641.645630,325.163971 616.000427,298.185333 616.527832,266.973969 
	C617.085266,233.986084 616.659485,200.981537 616.658875,167.984268 
	C616.658752,160.367203 616.650696,160.359772 609.008850,160.359756 
	C492.685181,160.359619 376.361053,160.511490 260.038391,160.170303 
	C245.748154,160.128403 236.145523,170.279495 236.162064,183.906815 
	C236.415863,393.055847 236.336288,602.205261 236.335495,811.354614 
	C236.335464,820.020569 236.261368,828.687622 236.377213,837.352112 
	C236.517731,847.861511 245.075043,858.576477 255.172607,860.428650 
	C260.054962,861.324280 265.114441,861.572571 270.093872,861.574097 
	C429.247253,861.624207 588.400635,861.614807 747.554016,861.571411 
	C752.543335,861.570068 757.547729,861.284302 762.519043,860.839661 
	C777.531677,859.497131 786.646790,849.485840 786.648071,834.327698 
	C786.662415,666.341614 786.633423,498.355530 786.753784,330.369507 
	C786.757324,325.435150 785.189026,324.243988 780.495911,324.268005 
	C746.832947,324.440552 713.168640,324.357422 678.506958,324.355316 
M701.499939,294.648590 
	C720.897461,294.648590 740.295044,294.648590 760.100586,294.648590 
	C757.577026,290.239929 650.224609,182.403793 646.349792,180.251617 
	C646.349792,182.265549 646.349731,184.065765 646.349731,185.865997 
	C646.349487,212.337433 646.340027,238.808868 646.352539,265.280304 
	C646.360535,282.291077 658.569031,294.577484 675.526794,294.642548 
	C683.851013,294.674469 692.175537,294.648254 701.499939,294.648590 
z"/>
<path fill="#000000" opacity="1.000000" stroke="none" 
	d="
M329.669495,448.064087 
	C333.245483,431.820221 339.566071,417.517242 352.991028,407.561401 
	C365.595673,398.213898 379.871857,395.298004 395.419617,397.236847 
	C427.131348,401.191376 443.649719,424.237732 449.336395,450.941162 
	C453.320007,469.647156 452.878357,488.521057 451.444458,507.475922 
	C450.096588,525.293518 445.452789,541.938416 436.789673,557.645569 
	C418.241089,591.276001 375.844391,593.740356 350.795929,575.385071 
	C343.839172,570.287231 338.745544,563.480774 335.480499,555.422180 
	C333.269958,549.966187 335.157196,545.748535 340.855377,544.393860 
	C345.993988,543.172302 351.263580,542.466370 356.500336,541.704590 
	C360.536346,541.117432 362.255951,543.911804 364.052826,546.942810 
	C373.580353,563.013916 391.598633,565.237000 404.829987,552.117371 
	C409.308105,547.677063 412.048370,542.166077 414.362518,536.457397 
	C417.786926,528.009705 419.341217,519.111816 420.711609,509.232025 
	C413.485870,512.176636 407.340332,515.408691 400.499390,516.894714 
	C376.737976,522.056152 350.015686,513.718445 337.647217,494.500092 
	C328.526215,480.327789 326.952606,464.766144 329.669495,448.064087 
M418.644196,468.126068 
	C419.092712,459.864014 417.633453,451.863495 414.599762,444.252472 
	C410.509796,433.991180 403.219788,426.896210 391.969391,425.500702 
	C380.454346,424.072388 371.503082,429.069672 365.571381,438.899841 
	C360.970245,446.524994 360.118439,455.095398 360.300598,463.889526 
	C360.620422,479.330383 371.118317,491.223236 386.006439,492.614136 
	C401.980988,494.106506 415.707947,484.173401 418.644196,468.126068 
z"/>
<path fill="#000000" opacity="1.000000" stroke="none" 
	d="
M542.653809,559.004395 
	C542.652710,555.341614 542.362427,552.144470 542.718018,549.020813 
	C543.268738,544.182007 541.094788,543.165649 536.694641,543.202393 
	C517.044739,543.366882 497.392334,543.246887 477.740936,543.193726 
	C475.753845,543.188354 473.762878,542.988342 471.781555,542.797668 
	C466.880219,542.325745 465.054260,539.275208 464.798462,534.682556 
	C464.325867,526.196777 465.888916,518.610596 470.650452,511.095032 
	C492.892975,475.987335 514.632385,440.560516 536.481262,405.204315 
	C538.816711,401.425049 541.931702,399.599731 546.319519,399.637695 
	C552.647461,399.692444 558.976562,399.618439 565.304688,399.660858 
	C571.602661,399.703064 573.330933,401.387177 573.335754,407.654114 
	C573.361206,440.795227 573.346558,473.936371 573.351257,507.077484 
	C573.352173,513.645691 573.363220,513.645752 579.917969,513.667908 
	C581.083740,513.671814 582.250061,513.652283 583.415100,513.682251 
	C591.697632,513.895264 593.329895,515.549072 593.347473,523.745422 
	C593.355652,527.575806 593.380737,531.406494 593.338745,535.236450 
	C593.277405,540.830200 591.700928,542.638794 586.056824,543.187744 
	C583.416260,543.444641 580.715637,543.451721 578.072144,543.223999 
	C574.245605,542.894348 573.210327,544.586548 573.286804,548.186096 
	C573.477722,557.175049 573.387878,566.171143 573.331787,575.163879 
	C573.294800,581.085266 571.197388,583.192505 565.168762,583.319458 
	C560.174805,583.424683 555.175659,583.409485 550.181152,583.318542 
	C545.163635,583.227173 542.916565,581.112305 542.729614,575.988403 
	C542.529358,570.499695 542.665039,564.998596 542.653809,559.004395 
M531.450439,514.646606 
	C533.114624,514.647034 534.801392,514.471619 536.438782,514.681274 
	C541.158936,515.285583 542.814392,513.520996 542.752869,508.606567 
	C542.505798,488.884674 542.650696,469.157898 542.650696,449.205200 
	C528.959412,470.766968 515.345520,492.206879 501.097076,514.646057 
	C511.875153,514.646057 521.169434,514.646057 531.450439,514.646606 
z"/>
<path fill="#000000" opacity="1.000000" stroke="none" 
	d="
M622.552368,454.711731 
	C620.862366,455.843811 619.595398,457.127106 618.072632,457.619598 
	C611.632935,459.702240 607.164307,458.106506 607.588867,451.326843 
	C607.911011,446.182098 607.715393,440.999573 607.623596,435.836090 
	C607.552979,431.862854 608.935364,428.661530 612.241638,426.432800 
	C624.663025,418.059692 637.105591,409.718018 649.550049,401.379333 
	C653.796814,398.533752 658.608154,399.797333 663.188232,399.689911 
	C679.298523,399.311981 677.326477,400.174866 677.407410,413.733093 
	C677.589417,444.217499 677.991821,474.703979 677.785767,505.186157 
	C677.640503,526.672119 677.341797,548.147583 677.855713,569.635376 
	C678.166809,582.639099 677.135010,583.368530 664.010925,583.360474 
	C660.678650,583.358398 657.344055,583.257996 654.014648,583.350647 
	C649.135315,583.486450 647.149170,580.691589 646.719543,576.324402 
	C646.557068,574.673157 646.657837,572.994812 646.657654,571.328857 
	C646.653992,529.508484 646.662292,487.688080 646.620850,445.867706 
	C646.618896,443.948181 647.204834,441.896210 645.538025,439.401611 
	C637.940674,444.458923 630.399231,449.479034 622.552368,454.711731 
z"/>
<path fill="#000000" opacity="1.000000" stroke="none" 
	d="
M374.321716,713.785706 
	C375.976349,718.713074 380.376831,722.180664 380.096680,728.220398 
	C373.307404,728.220398 366.849548,728.395935 360.408875,728.139832 
	C357.565796,728.026794 356.504700,725.220093 355.327423,723.078186 
	C350.116211,713.596863 344.774506,704.174072 339.982727,694.481567 
	C337.960266,690.390686 335.470642,689.041321 331.052002,689.208435 
	C319.870483,689.631409 321.469482,687.887634 321.363800,699.240723 
	C321.294006,706.739258 321.193542,714.243164 321.398865,721.736572 
	C321.531433,726.575256 319.105133,728.183960 314.735779,728.362976 
	C298.789886,729.016296 298.790863,729.052002 298.789124,712.982300 
	C298.786346,686.985229 298.770447,660.988098 298.789215,634.991028 
	C298.795929,625.731140 299.838043,624.653992 309.100281,624.689392 
	C323.720947,624.745300 338.328796,624.226196 352.907501,626.496277 
	C375.799225,630.060730 385.343018,657.450500 371.810150,675.256409 
	C368.419647,679.717468 363.843781,682.641968 359.091156,686.173157 
	C364.209473,695.453369 369.175568,704.457703 374.321716,713.785706 
M321.349030,655.531677 
	C321.351135,659.516663 321.455841,663.505127 321.321198,667.485474 
	C321.222687,670.395752 322.241455,671.608948 325.314819,671.715149 
	C332.150116,671.951233 338.930267,671.318726 345.660614,670.483887 
	C353.494141,669.512207 357.267212,663.623779 356.665161,654.372375 
	C356.277039,648.407776 351.442993,644.506653 344.089264,644.332947 
	C339.940186,644.234924 335.786987,644.215393 331.637054,644.269592 
	C319.729889,644.425171 321.532623,642.625122 321.349030,655.531677 
z"/>
<path fill="#000000" opacity="1.000000" stroke="none" 
	d="
M474.193542,756.336304 
	C467.567444,756.037476 466.679718,755.232422 466.674103,749.331177 
	C466.645203,719.018250 466.640228,688.705261 466.671600,658.392334 
	C466.678741,651.483459 468.618591,649.524658 475.691711,649.714355 
	C480.361176,649.839600 486.206543,647.559143 488.098785,655.419434 
	C493.539246,650.988098 499.059631,647.806458 505.838989,647.639954 
	C519.811829,647.296875 531.276672,655.451355 536.342163,670.356689 
	C541.039062,684.177551 540.914246,698.101562 534.764099,711.602478 
	C528.288269,725.818298 515.749756,732.190369 500.555481,729.212952 
	C496.188446,728.357300 492.792297,725.604797 488.348145,722.788879 
	C488.348145,728.990723 488.348175,734.531555 488.348145,740.072327 
	C488.348145,740.905090 488.350616,741.737915 488.347626,742.570679 
	C488.295502,757.039490 489.984009,756.468750 474.193542,756.336304 
M488.994873,677.559326 
	C486.602020,686.284668 486.460846,694.979431 490.084717,703.382812 
	C492.414276,708.784851 496.663605,712.616455 502.708832,712.374207 
	C508.546112,712.140259 512.869080,708.729858 515.148743,703.062134 
	C518.306091,695.212280 518.304199,687.203735 516.492371,679.108704 
	C514.806702,671.577271 510.095764,666.992493 503.646454,666.405090 
	C496.815216,665.782837 492.533630,668.877441 488.994873,677.559326 
z"/>
<path fill="#000000" opacity="1.000000" stroke="none" 
	d="
M574.321411,648.797974 
	C586.264038,646.840698 597.022400,648.684448 606.194641,656.181152 
	C616.874084,664.909790 619.932373,677.031982 619.748352,690.130920 
	C619.611023,699.909485 617.684204,709.326416 611.157410,717.148254 
	C604.778381,724.792969 596.910950,729.606873 586.624817,729.313171 
	C581.829529,729.176270 577.001526,730.006836 572.235962,728.569580 
	C557.305359,724.066528 546.586487,710.893433 545.760254,695.233887 
	C545.455688,689.460999 545.085022,683.623047 546.361511,677.834167 
	C549.721497,662.596619 558.612976,652.715454 574.321411,648.797974 
M596.516479,677.043091 
	C596.163086,676.289673 595.834167,675.523682 595.452332,674.784973 
	C592.813782,669.680603 588.888062,666.411865 582.901184,666.401306 
	C576.837402,666.390625 572.513489,669.087708 569.881470,674.717590 
	C565.864807,683.309448 565.575256,692.022522 568.711853,700.836121 
	C571.330872,708.195557 577.459106,712.952820 583.316040,712.587524 
	C589.591492,712.196167 595.335571,706.890991 597.257751,699.357300 
	C599.095093,692.155640 599.496460,684.916809 596.516479,677.043091 
z"/>
<path fill="#000000" opacity="1.000000" stroke="none" 
	d="
M393.495789,716.368896 
	C381.374390,700.124634 383.288177,672.213135 395.144226,659.260681 
	C403.214142,650.444580 412.966217,647.778381 424.638550,648.338867 
	C445.988556,649.364014 457.182068,669.152344 456.349915,687.108948 
	C456.060150,693.362061 454.180450,695.331238 447.831238,695.349670 
	C435.506927,695.385498 423.180481,695.495483 410.859161,695.302490 
	C406.385712,695.232422 405.748077,697.256226 406.711975,700.869324 
	C409.735199,712.201416 423.649200,716.790894 433.268341,708.779785 
	C439.190643,703.847534 444.563019,704.489563 450.803894,706.591614 
	C454.416626,707.808411 455.171356,709.900696 453.315186,713.024170 
	C447.709656,722.457031 439.647980,728.588074 428.546021,729.204102 
	C420.694397,729.639709 412.620209,730.538696 405.168488,726.169434 
	C400.769836,723.590393 397.086243,720.367615 393.495789,716.368896 
M433.549713,681.515991 
	C436.260773,680.534790 435.620514,678.591736 435.028107,676.584290 
	C432.738983,668.827026 426.894104,664.575500 419.550232,665.379211 
	C412.541687,666.146179 407.257202,672.642761 406.953156,681.607849 
	C415.546021,681.607849 424.134369,681.607849 433.549713,681.515991 
z"/>
<path fill="#000000" opacity="1.000000" stroke="none" 
	d="
M695.278320,718.384033 
	C693.287720,714.767517 692.638611,711.227600 692.647827,707.508179 
	C692.676514,695.849670 692.543457,684.189331 692.721313,672.533447 
	C692.778809,668.763794 691.820129,666.803894 687.690796,667.301147 
	C683.598206,667.794067 681.937561,665.418945 681.736267,661.710205 
	C681.619141,659.551208 681.610107,657.378784 681.695740,655.218018 
	C681.836670,651.663696 683.633118,649.398499 687.315979,649.731506 
	C692.071045,650.161377 693.085144,647.763733 692.683655,643.751343 
	C692.535278,642.267944 692.621338,640.753662 692.688965,639.257446 
	C692.935913,633.797668 694.960938,631.805237 700.355835,631.649414 
	C713.765442,631.262146 714.255310,631.551941 714.239258,644.804626 
	C714.234131,649.075745 716.009521,649.742981 719.628723,649.720581 
	C728.701904,649.664307 729.477783,650.555847 729.343567,659.245667 
	C729.238953,666.017944 727.949524,667.276855 721.059631,667.333374 
	C714.359375,667.388245 714.352905,667.388245 714.349182,674.283569 
	C714.343994,683.943542 714.322388,693.603577 714.359375,703.263367 
	C714.385925,710.181580 715.519287,711.621582 722.369934,711.585876 
	C729.066345,711.550964 728.358887,716.699707 729.172241,720.611877 
	C729.922485,724.220276 729.553955,728.271545 724.960022,728.785645 
	C712.760986,730.150757 703.747986,730.923462 695.278320,718.384033 
z"/>
<path fill="#000000" opacity="1.000000" stroke="none" 
	d="
M650.324341,693.002930 
	C650.323486,702.830566 650.373535,712.159241 650.301758,721.487061 
	C650.259216,727.020630 648.976807,728.245178 643.518066,728.343933 
	C626.021545,728.660522 628.731384,727.713867 628.672119,713.951233 
	C628.594604,695.961182 628.655212,677.970642 628.659180,659.980286 
	C628.661438,649.606628 628.664368,649.684326 639.269165,649.614075 
	C643.932678,649.583252 648.126282,649.976685 649.148071,656.484253 
	C653.179626,652.548340 656.919556,649.737854 661.633240,648.366821 
	C664.464111,647.543579 667.217896,647.661011 670.026550,647.816833 
	C670.822144,647.860962 671.636902,648.245544 672.369629,648.618103 
	C675.697388,650.310242 676.378662,656.615784 674.047607,663.740662 
	C672.927551,667.164307 670.437988,667.492004 667.277710,667.120667 
	C656.441833,665.847595 650.393250,671.234375 650.333496,682.009216 
	C650.314087,685.507263 650.326294,689.005493 650.324341,693.002930 
z"/>
</svg>
