<svg version="1.1" id="Layer_1" xmlns="http://www.w3.org/2000/svg" xmlns:xlink="http://www.w3.org/1999/xlink" x="0px" y="0px"
	 width="100%" viewBox="0 0 1024 1024" enable-background="new 0 0 1024 1024" xml:space="preserve">
<path fill="#000000" opacity="1.000000" stroke="none" 
	d="
M459.999939,871.231934 
	C396.169708,871.219604 332.839478,871.247192 269.509369,871.167297 
	C253.652603,871.147339 240.561630,865.539307 232.120178,851.373596 
	C228.890991,845.954712 227.527359,840.095520 227.554352,833.740540 
	C227.661957,808.409058 227.569931,783.076782 227.573044,757.744812 
	C227.596252,569.262390 227.743896,380.779724 227.470734,192.297729 
	C227.442719,172.970688 244.610489,153.828857 264.598785,153.445541 
	C306.592133,152.640228 348.582336,153.119339 390.572754,153.026154 
	C457.401794,152.877838 524.233032,153.274857 591.059753,152.860184 
	C606.102661,152.766846 617.642334,157.427307 628.325012,168.167786 
	C679.440796,219.560211 731.119629,270.392334 782.541992,321.480347 
	C788.928040,327.824738 792.367371,335.521667 792.365234,344.744141 
	C792.327698,507.403076 792.352905,670.062012 792.325623,832.720947 
	C792.322388,852.114075 777.168518,868.688354 757.929077,870.380066 
	C736.476257,872.266602 714.967896,871.098755 693.488892,871.146362 
	C615.826233,871.318481 538.162964,871.225159 459.999939,871.231934 
M252.324356,474.499939 
	C252.329086,592.154053 252.329163,709.808105 252.345474,827.462219 
	C252.347168,839.668579 258.033630,845.714905 269.724548,845.716553 
	C430.042358,845.738525 590.360168,845.723267 750.677979,845.742432 
	C753.388123,845.742798 756.045410,845.544495 758.454712,844.298767 
	C765.346191,840.735291 767.657043,834.622498 767.652832,827.295776 
	C767.637695,800.798523 767.604614,774.301208 767.603760,747.803955 
	C767.599609,617.984253 767.605713,488.164551 767.600281,358.344849 
	C767.599915,349.687225 767.188782,349.303741 758.630737,349.304108 
	C718.134644,349.305878 677.638550,349.322815 637.142456,349.303864 
	C613.508972,349.292786 595.708130,331.543732 595.686218,307.929230 
	C595.648865,267.599823 595.670349,227.270370 595.663208,186.940933 
	C595.661865,179.285660 595.653625,179.268997 587.994324,179.267487 
	C482.004669,179.246597 376.014984,179.227570 270.025330,179.217651 
	C258.055389,179.216522 252.319565,185.005356 252.319519,197.026657 
	C252.319229,289.184418 252.322342,381.342163 252.324356,474.499939 
M655.484802,232.015335 
	C644.219604,220.842682 632.954407,209.670029 621.744568,198.552307 
	C619.974121,200.015457 620.364197,201.270920 620.363464,202.370346 
	C620.340393,236.997421 620.281555,271.624695 620.387329,306.251495 
	C620.418457,316.434784 627.947266,323.656616 638.318054,323.675201 
	C672.279114,323.736084 706.240295,323.706787 740.201416,323.667328 
	C741.916504,323.665344 743.933472,324.299835 744.688171,323.079468 
	C715.008179,292.774414 685.498413,262.643188 655.484802,232.015335 
z"/>
<path fill="#000000" opacity="1.000000" stroke="none" 
	d="
M348.561676,466.522644 
	C375.765137,444.278198 420.111053,450.218170 441.275940,484.157104 
	C449.312439,497.044189 452.366760,511.260071 453.126862,525.910889 
	C454.230988,547.192749 453.499512,568.430054 448.402893,589.359680 
	C441.443848,617.937561 422.464996,636.756897 393.491180,640.802307 
	C369.529205,644.147888 346.452240,634.785828 333.939545,612.089844 
	C330.551880,605.945190 331.152313,604.524231 337.552795,602.227905 
	C341.307312,600.880859 345.072113,599.554382 348.777771,598.081604 
	C351.741302,596.903748 353.794403,597.570190 355.472626,600.357239 
	C361.803680,610.871277 371.571777,616.298340 383.417114,617.340271 
	C393.845123,618.257446 403.288971,614.375244 410.679352,607.134033 
	C423.739410,594.337585 425.818390,577.560486 426.896118,559.209839 
	C422.935120,561.901611 420.018951,563.943909 417.043640,565.895996 
	C385.658173,586.488037 334.532928,570.037903 326.698334,525.682556 
	C322.513306,501.988922 330.384918,482.471832 348.561676,466.522644 
M411.130188,541.650330 
	C419.440582,534.878723 424.087982,526.177002 424.647339,515.447693 
	C425.456818,499.918945 410.464325,477.308502 385.265381,478.247284 
	C370.988922,478.779144 360.697174,485.638306 354.631836,497.943970 
	C348.803375,509.769073 348.787750,522.183167 356.422577,533.568298 
	C368.490448,551.564026 391.496246,555.059082 411.130188,541.650330 
z"/>
<path fill="#000000" opacity="1.000000" stroke="none" 
	d="
M590.289734,575.692505 
	C594.250610,575.711182 597.758606,575.569397 601.244202,575.786804 
	C605.682922,576.063782 608.365662,578.298767 608.330811,583.071594 
	C608.311340,585.736633 608.359497,588.402161 608.345947,591.067383 
	C608.309448,598.250427 606.175415,600.563660 598.935791,600.998840 
	C595.613892,601.198425 592.270447,601.242737 588.945007,601.125244 
	C585.485657,601.003174 584.236511,602.498657 584.297546,605.906616 
	C584.440674,613.899841 584.381165,621.898071 584.311707,629.893433 
	C584.262268,635.585876 581.857788,638.156433 576.136047,638.278931 
	C560.952148,638.603882 559.039978,638.615845 559.622864,622.720764 
	C559.805908,617.729980 559.661804,612.726868 559.648254,607.729370 
	C559.630676,601.248108 559.553650,601.098328 552.857361,601.092346 
	C531.368469,601.073181 509.879608,601.122925 488.390717,601.141418 
	C477.954865,601.150391 475.685608,598.921814 475.678680,588.672729 
	C475.676300,585.174500 475.846588,581.667480 475.653534,578.180176 
	C475.362610,572.925476 477.016296,568.378845 480.012512,564.174438 
	C503.689819,530.949707 527.316040,497.688477 551.042969,464.499268 
	C556.626343,456.689270 572.216125,452.975494 580.661865,457.248718 
	C583.497314,458.683350 584.346008,461.310577 584.333740,464.373169 
	C584.295166,474.034729 584.333862,483.696594 584.335571,493.358337 
	C584.340149,518.845398 584.411621,544.332886 584.272400,569.819214 
	C584.249695,573.978027 585.261169,576.291016 590.289734,575.692505 
M547.157532,512.614624 
	C533.643982,531.770020 520.121399,550.919067 506.637177,570.095093 
	C505.736511,571.375916 503.942841,572.548889 504.941742,574.428162 
	C505.904724,576.239868 507.883423,575.647278 509.473572,575.651489 
	C523.945312,575.689880 538.417297,575.708130 552.888977,575.658203 
	C558.522766,575.638794 559.628845,574.519775 559.636658,568.916443 
	C559.667236,546.959167 559.653503,525.001892 559.636353,503.044617 
	C559.634888,501.152161 559.861206,499.160309 558.146362,497.116638 
	C554.458008,502.311768 551.011047,507.166870 547.157532,512.614624 
z"/>
<path fill="#000000" opacity="1.000000" stroke="none" 
	d="
M692.347839,612.999939 
	C692.344482,619.329529 692.287415,625.159729 692.354065,630.988586 
	C692.406372,635.556702 689.784180,637.539185 685.701233,638.246948 
	C685.537964,638.275269 685.369324,638.283569 685.203186,638.283203 
	C671.072388,638.252197 666.526978,640.853333 666.670105,621.734253 
	C666.976807,580.762573 666.771790,539.787048 666.737915,498.813080 
	C666.736023,496.530334 667.217285,494.160919 666.101807,491.941498 
	C663.767517,490.849609 662.277039,492.648682 660.676819,493.588928 
	C652.784302,498.226257 645.035583,503.111176 637.097412,507.667023 
	C631.354797,510.962830 628.788269,509.379089 628.685974,502.786591 
	C628.616211,498.290558 628.767639,493.790070 628.649109,489.296112 
	C628.540955,485.197479 630.291870,482.277008 633.743896,480.245331 
	C645.938843,473.067993 658.127014,465.879150 670.329590,458.714752 
	C674.468628,456.284637 678.932068,455.385681 683.742065,455.655945 
	C690.146179,456.015778 692.331360,458.099884 692.333740,464.593445 
	C692.351929,513.895630 692.345947,563.197815 692.347839,612.999939 
z"/>
</svg>