<svg version="1.1" id="Layer_1" xmlns="http://www.w3.org/2000/svg" xmlns:xlink="http://www.w3.org/1999/xlink" x="0px" y="0px"
	 width="100%" viewBox="0 0 1024 1024" enable-background="new 0 0 1024 1024" xml:space="preserve">
<path fill="#000000" opacity="1.000000" stroke="none" 
	d="
M621.934021,130.067871 
	C647.093933,155.364655 672.031860,180.383728 696.914124,205.457993 
	C715.338928,224.024994 733.642578,242.712524 752.108643,261.238190 
	C757.067200,266.212738 759.471741,271.610626 759.461670,278.944580 
	C759.273743,415.599579 759.334717,552.254883 759.327026,688.910095 
	C759.325500,716.284973 740.490356,735.928955 713.133545,736.007324 
	C630.641968,736.243652 548.149292,736.105835 465.657074,736.115051 
	C411.495422,736.121094 357.333771,736.127258 303.172119,736.137573 
	C293.979889,736.139343 284.889069,735.758240 276.368988,731.593262 
	C260.455658,723.814209 251.835953,710.859375 251.816193,693.459167 
	C251.606400,508.641541 251.662750,323.823578 251.704361,139.005737 
	C251.709686,115.381424 270.896545,96.759682 295.191956,96.710373 
	C338.354828,96.622772 381.518005,96.683769 424.681061,96.682816 
	C477.343323,96.681656 530.005676,96.726616 582.667603,96.592300 
	C586.866943,96.581589 589.836914,97.815598 592.732788,100.799171 
	C602.248474,110.602844 612.016846,120.161224 621.934021,130.067871 
M726.386108,289.279999 
	C693.057922,289.285461 659.729614,289.267120 626.401550,289.323517 
	C621.702942,289.331482 617.089172,288.754333 612.585144,287.613068 
	C586.826477,281.085999 566.835876,255.486176 566.747864,228.753799 
	C566.638672,195.592239 566.645081,162.429810 566.788879,129.268555 
	C566.808472,124.764732 565.530273,122.955132 560.839417,123.198250 
	C554.524292,123.525543 548.178833,123.264526 541.846436,123.264313 
	C460.191589,123.261551 378.536743,123.268318 296.881897,123.234802 
	C292.822784,123.233139 288.994537,123.578468 285.387238,125.799644 
	C276.886597,131.033859 274.309235,139.009521 274.310211,148.380798 
	C274.327606,314.190308 274.304199,479.999817 274.371094,645.809326 
	C274.377075,660.626038 273.746399,675.461182 275.290527,690.261292 
	C276.211487,699.088440 282.338989,707.195435 290.730164,709.156372 
	C294.563324,710.052124 298.667908,710.048462 302.646210,710.019226 
	C331.452148,709.807861 360.252014,710.690186 389.064087,710.163757 
	C412.031494,709.744080 435.013000,710.100403 457.988251,710.102417 
	C516.956360,710.107666 575.924561,710.145813 634.892639,710.092224 
	C661.553772,710.067993 688.215942,709.963867 714.875244,709.674988 
	C724.697449,709.568604 732.799133,702.104736 734.833618,692.489868 
	C736.167053,686.188049 735.588623,679.870483 735.590881,673.565186 
	C735.636841,548.250671 735.630737,422.936218 735.612244,297.621735 
	C735.611023,289.325653 735.525696,289.325653 726.386108,289.279999 
M606.265991,256.262634 
	C613.367188,261.460999 621.338562,263.740967 630.113770,263.720886 
	C657.099182,263.659210 684.085022,263.719849 711.070496,263.670258 
	C712.958435,263.666779 715.027283,264.335358 717.366455,262.476288 
	C675.357605,220.059738 633.486389,177.782135 591.615173,135.504532 
	C591.179260,135.793472 590.743408,136.082413 590.307556,136.371353 
	C590.307556,138.008911 590.307739,139.646484 590.307556,141.284058 
	C590.304260,168.436249 590.409363,195.589050 590.251648,222.740356 
	C590.172791,236.319626 595.089111,247.345001 606.265991,256.262634 
z"/>
<path fill="#000000" opacity="1.000000" stroke="none" 
	d="
M487.335510,902.939636 
	C483.042969,894.215332 479.011475,885.812988 474.845001,877.478088 
	C472.888062,873.563171 466.235168,871.650452 462.439301,873.739258 
	C460.324768,874.902954 460.353607,876.960144 460.348846,878.981873 
	C460.332001,886.140869 460.179810,893.303467 460.362823,900.457397 
	C460.457642,904.163818 459.037445,905.422058 455.398102,905.358032 
	C441.730072,905.117371 443.772186,906.797913 443.710693,894.235046 
	C443.597412,871.093628 443.801056,847.950134 443.587128,824.810120 
	C443.542358,819.965515 445.090118,818.353210 449.865936,818.639038 
	C461.636871,819.343506 473.501160,817.543457 485.220825,819.653320 
	C496.329926,821.653259 503.033386,828.552795 504.824829,839.510498 
	C506.543274,850.021301 504.972717,859.938904 495.387146,866.613220 
	C491.964905,868.996155 491.387360,871.141174 493.367096,874.855469 
	C497.434570,882.487061 501.070190,890.349670 504.841370,898.137634 
	C505.766266,900.047729 507.042908,901.874634 506.729279,905.194153 
	C500.330994,904.360901 493.757050,907.687134 487.335510,902.939636 
M486.759705,842.713501 
	C486.097992,838.601196 483.340637,836.385620 479.663086,835.201111 
	C474.329895,833.483215 468.825897,834.416382 463.390686,834.481445 
	C461.958405,834.498535 460.698303,835.576782 460.653595,836.963379 
	C460.447205,843.363281 458.300354,850.474060 461.664246,855.925781 
	C464.288544,860.178955 470.621613,857.058167 475.255676,857.677063 
	C475.740112,857.741760 476.252686,857.677246 476.742645,857.606384 
	C484.231598,856.522583 488.350555,850.787292 486.759705,842.713501 
z"/>
<path fill="#000000" opacity="1.000000" stroke="none" 
	d="
M277.921295,838.382446 
	C282.585663,853.409363 282.870483,868.254028 278.898193,882.986084 
	C274.675751,898.645752 261.474426,907.562256 244.140900,907.262634 
	C228.040009,906.984375 215.696884,897.350891 211.572693,882.069885 
	C208.339874,870.091614 208.663528,857.969666 210.743927,845.999390 
	C213.449371,830.432800 223.707825,817.332947 245.378342,817.579102 
	C260.664276,817.752808 271.503693,824.020996 277.921295,838.382446 
M228.458893,875.882385 
	C228.667374,876.513611 228.876175,877.144653 229.084259,877.776001 
	C232.162659,887.114502 237.500534,891.045715 246.683853,890.737732 
	C254.794464,890.465759 260.175659,885.808167 262.281586,876.569885 
	C264.372040,867.399475 264.520203,858.115417 262.300385,848.914795 
	C259.909515,839.005249 253.282425,833.181702 244.856552,833.363342 
	C236.610352,833.541138 230.407288,839.428467 228.309372,849.309448 
	C226.490494,857.876099 227.049667,866.476440 228.458893,875.882385 
z"/>
<path fill="#000000" opacity="1.000000" stroke="none" 
	d="
M636.859497,850.723022 
	C646.363953,850.721313 646.689270,850.409790 646.704041,841.561768 
	C646.714050,835.566711 646.799438,829.569336 646.660950,823.577454 
	C646.585815,820.326172 647.542786,818.623901 651.149414,818.678284 
	C666.096863,818.903687 663.188354,817.189941 663.287354,830.259644 
	C663.462708,853.405823 663.232605,876.555115 663.421265,899.701111 
	C663.455750,903.935059 662.548218,905.581665 657.953369,905.420105 
	C645.071533,904.967041 646.849304,906.903564 646.719238,894.272095 
	C646.647278,887.278564 646.570740,880.280273 646.753052,873.290771 
	C646.862915,869.080200 645.320190,867.168701 640.951721,867.268555 
	C633.295288,867.443604 625.630493,867.418945 617.972412,867.290649 
	C613.961792,867.223511 612.226013,868.826294 612.285400,872.916260 
	C612.418274,882.073303 612.197815,891.235901 612.360596,900.391968 
	C612.425171,904.023438 611.188843,905.434021 607.470947,905.358154 
	C592.927673,905.061279 595.123901,907.153992 595.009033,893.421509 
	C594.816895,870.442505 595.063965,847.459778 594.879395,824.480652 
	C594.845215,820.222412 595.867004,818.494324 600.407166,818.637695 
	C614.428711,819.080505 612.073425,816.813354 612.309387,830.540894 
	C612.392395,835.368774 612.442871,840.203247 612.286865,845.027527 
	C612.156677,849.054688 613.833740,850.821289 617.898193,850.736023 
	C624.057068,850.606812 630.220886,850.715454 636.859497,850.723022 
z"/>
<path fill="#000000" opacity="1.000000" stroke="none" 
	d="
M550.681030,891.595093 
	C553.506531,890.941833 556.044312,890.611816 558.305176,889.638489 
	C565.147278,886.692688 565.919678,878.768738 559.832764,874.460754 
	C555.089417,871.103699 549.422974,870.136658 543.938660,868.808228 
	C540.365967,867.942871 536.885803,866.881226 533.505981,865.444702 
	C521.474854,860.330994 515.994324,851.113159 517.829712,839.022522 
	C519.540894,827.750488 529.204346,818.712097 541.215210,817.835632 
	C551.075378,817.116150 560.873047,817.371582 569.544861,823.390198 
	C574.806885,827.042236 577.391479,832.287476 579.226257,838.106140 
	C580.058105,840.744019 579.134583,842.192810 576.360107,842.656799 
	C574.232727,843.012512 572.143127,843.612610 570.051880,844.161621 
	C566.190796,845.175354 563.672729,844.854736 561.591675,840.352722 
	C558.187195,832.987549 546.019531,830.713684 539.198120,835.366638 
	C533.650208,839.150757 534.589233,846.525574 541.213989,849.841248 
	C546.309937,852.391907 551.995972,853.193359 557.447449,854.668335 
	C562.613586,856.066101 567.670044,857.645813 572.101501,860.803345 
	C586.710938,871.212646 585.515747,894.274414 569.577637,902.562622 
	C556.367126,909.432373 542.604187,909.137939 529.096069,903.158813 
	C522.351501,900.173401 518.388000,894.418945 515.651428,887.704041 
	C514.663757,885.280579 515.200928,883.909241 517.627014,883.147461 
	C519.373718,882.598938 521.168091,882.155823 522.844910,881.440186 
	C527.926758,879.271545 531.790771,878.437439 534.959900,885.093933 
	C537.680969,890.809509 544.272034,891.448242 550.681030,891.595093 
z"/>
<path fill="#000000" opacity="1.000000" stroke="none" 
	d="
M700.358215,838.603333 
	C700.268738,852.776733 700.268738,852.778137 714.028870,852.766479 
	C719.195129,852.762085 724.364502,852.854858 729.526550,852.702759 
	C732.796570,852.606384 734.414124,853.566589 734.350952,857.205994 
	C734.123840,870.304993 735.573853,868.084229 723.618591,868.291016 
	C717.454102,868.397644 711.284058,868.415955 705.121155,868.273682 
	C701.813049,868.197327 700.117065,869.239868 700.281982,872.826538 
	C700.457886,876.651428 700.398987,880.492798 700.297729,884.323120 
	C700.197021,888.133179 701.932190,889.747314 705.725708,889.714417 
	C715.557495,889.629272 725.392944,889.822021 735.222046,889.639526 
	C739.143738,889.566772 740.502502,890.992493 740.390869,894.887878 
	C740.050720,906.755615 741.816956,905.238159 730.022827,905.301453 
	C716.357544,905.374817 702.688538,905.161987 689.027527,905.414673 
	C684.368347,905.500732 682.604553,904.244507 682.647156,899.289612 
	C682.861877,874.293335 682.837646,849.293518 682.657166,824.296692 
	C682.624939,819.825500 684.180786,818.570679 688.462341,818.625793 
	C703.958679,818.825134 719.460388,818.823730 734.957092,818.644714 
	C739.111450,818.596741 740.473145,820.032776 740.383423,824.132385 
	C740.132080,835.620789 741.456909,834.190430 730.168762,834.281494 
	C722.003235,834.347351 713.836609,834.327820 705.670715,834.288269 
	C702.885925,834.274658 700.658325,834.846436 700.358215,838.603333 
z"/>
<path fill="#000000" opacity="1.000000" stroke="none" 
	d="
M373.450043,845.418335 
	C372.728149,836.477539 373.047394,828.018738 373.846619,819.679993 
	C375.407715,818.294861 377.150665,818.737671 378.761078,818.734375 
	C393.917084,818.703186 409.074554,818.834595 424.228424,818.653931 
	C428.562500,818.602295 430.537445,819.636841 430.393921,824.475647 
	C430.063599,835.613220 431.028839,834.203674 420.810089,834.280396 
	C412.316498,834.344116 403.820862,834.383911 395.328583,834.263000 
	C391.774658,834.212463 390.162292,835.447205 390.265350,839.201416 
	C390.712799,855.508484 387.733215,852.405212 403.468231,852.749084 
	C408.961578,852.869141 414.460663,852.806519 419.955780,852.729187 
	C422.897522,852.687805 424.199615,853.932800 424.107574,856.924011 
	C423.718109,869.578308 426.445648,868.206665 413.284241,868.297791 
	C407.122131,868.340454 400.958160,868.393555 394.797852,868.283630 
	C391.655853,868.227600 390.180695,869.402588 390.284210,872.663757 
	C390.410980,876.656738 390.437164,880.663086 390.258240,884.652527 
	C390.092133,888.356689 391.785553,889.733887 395.318512,889.708679 
	C404.811340,889.640808 414.313293,889.930786 423.794983,889.600647 
	C428.731537,889.428711 430.582764,890.830811 430.408508,896.017639 
	C430.096588,905.302917 430.387909,905.314941 421.278656,905.316833 
	C407.621521,905.319702 393.964386,905.323975 380.307251,905.318176 
	C373.016510,905.315063 372.992126,905.305908 373.050507,897.781616 
	C373.184723,880.479980 373.345154,863.178467 373.450043,845.418335 
z"/>
<path fill="#000000" opacity="1.000000" stroke="none" 
	d="
M789.005371,834.297607 
	C784.678162,834.300964 780.847168,834.385437 777.021240,834.281067 
	C773.899658,834.195862 772.335327,835.534546 772.356262,838.678345 
	C772.470032,855.767456 770.189148,852.412903 785.070740,852.760559 
	C790.727234,852.892639 796.391235,852.820312 802.049438,852.713623 
	C804.978088,852.658447 806.270752,853.802307 806.245911,856.822876 
	C806.133240,870.514343 807.638794,868.059753 795.501343,868.286682 
	C789.344055,868.401794 783.180054,868.424072 777.024597,868.268860 
	C773.608276,868.182739 772.148621,869.473633 772.290283,872.935913 
	C772.446716,876.757996 772.461121,880.599609 772.263245,884.418579 
	C772.061157,888.321350 773.742615,889.779663 777.562622,889.732910 
	C787.382874,889.612671 797.210571,889.885498 807.025269,889.624268 
	C811.642273,889.501404 813.577637,890.773926 813.420959,895.750854 
	C813.069824,906.907043 814.070679,905.230408 803.660034,905.297241 
	C789.677063,905.387024 775.691101,905.191040 761.710876,905.406555 
	C757.302429,905.474487 755.551880,904.298279 755.589844,899.552246 
	C755.790710,874.416809 755.676758,849.278992 755.707092,824.141968 
	C755.709961,821.733276 755.138367,818.768677 759.043213,818.764465 
	C776.507507,818.745667 793.971802,818.756348 811.851318,818.756348 
	C812.662598,823.270081 812.364685,827.545532 812.122559,831.788391 
	C811.975708,834.361572 809.804077,834.240051 807.981934,834.253723 
	C801.822815,834.299866 795.663269,834.287170 789.005371,834.297607 
z"/>
<path fill="#000000" opacity="1.000000" stroke="none" 
	d="
M197.844223,887.604553 
	C191.232025,903.074097 176.786392,908.632202 161.556259,907.102905 
	C145.299988,905.470459 135.160965,896.080994 131.620880,880.161926 
	C128.607574,866.611816 128.488663,853.038696 132.740417,839.745850 
	C137.883057,823.667786 150.419601,816.481689 170.198349,817.719055 
	C184.323044,818.602722 195.461029,828.904480 198.658630,843.701721 
	C199.298828,846.664246 198.929779,848.206482 195.727356,848.453979 
	C195.074554,848.504395 194.446289,848.816589 193.794922,848.950928 
	C190.538589,849.622559 187.160233,851.142883 184.048691,850.719421 
	C179.956635,850.162476 181.433655,845.301270 179.776276,842.605957 
	C176.256027,836.881226 171.512573,833.158447 164.781494,833.517151 
	C157.970642,833.880066 152.368271,837.372864 150.451141,844.149170 
	C146.850693,856.875427 146.494659,869.826233 151.462173,882.312073 
	C154.024857,888.753357 159.775436,890.966187 166.532791,890.837769 
	C173.658234,890.702332 178.986252,887.361206 181.234833,880.851074 
	C183.027878,875.659790 185.509521,874.822510 189.972076,876.896912 
	C193.107056,878.354248 196.835770,878.250916 199.689377,880.436523 
	C199.908615,882.996887 198.615402,885.044250 197.844223,887.604553 
z"/>
<path fill="#000000" opacity="1.000000" stroke="none" 
	d="
M327.991791,875.012756 
	C333.210724,857.583862 338.404175,840.552429 343.308228,823.438049 
	C344.324005,819.893127 345.981354,818.404541 349.593658,818.684753 
	C354.182587,819.040710 358.850037,818.134644 364.025177,819.424561 
	C361.441254,827.221252 358.995605,834.759583 356.446045,842.262756 
	C349.807465,861.799622 343.036469,881.292297 336.542633,900.876953 
	C335.458710,904.145996 333.934631,905.660156 330.537415,905.324524 
	C329.217346,905.194092 327.873596,905.303650 326.540649,905.303467 
	C313.711975,905.301758 313.810822,905.268799 309.837372,893.327942 
	C302.428894,871.064209 294.875458,848.848816 287.436371,826.595215 
	C286.667633,824.295532 285.272339,822.056763 286.182465,818.809509 
	C291.517120,818.809509 296.964691,818.780090 302.411743,818.821106 
	C305.412048,818.843750 305.564667,821.456238 306.158966,823.395935 
	C311.567291,841.046936 316.886871,858.725098 322.243805,876.391846 
	C322.759735,878.093323 322.855499,880.021484 324.650177,881.214600 
	C327.226288,880.070251 326.953949,877.389771 327.991791,875.012756 
z"/>
<path fill="#000000" opacity="1.000000" stroke="none" 
	d="
M862.310303,894.965881 
	C862.206055,906.512451 863.410156,905.241333 852.377686,905.311096 
	C845.720825,905.353210 845.698486,905.292664 845.694092,898.713806 
	C845.681580,879.732605 845.704956,860.751404 845.678406,841.770203 
	C845.669250,835.230591 844.732544,834.347473 838.113037,834.305176 
	C833.950623,834.278564 829.787720,834.237305 825.625793,834.279297 
	C822.929688,834.306458 821.699524,833.117615 821.705200,830.376526 
	C821.734314,816.311157 820.538452,818.849854 832.322021,818.745422 
	C848.304871,818.603760 864.291260,818.833191 880.273376,818.656067 
	C884.596436,818.608154 886.570923,819.596802 886.407471,824.446655 
	C886.027954,835.705688 887.301270,834.234558 876.406067,834.276794 
	C859.917664,834.340637 862.421082,833.346558 862.318359,848.517883 
	C862.214661,863.835327 862.304749,879.154114 862.310303,894.965881 
z"/>
<path fill="#000000" opacity="1.000000" stroke="none" 
	d="
M406.000061,441.686462 
	C491.275970,441.687042 576.051819,441.695374 660.827698,441.663330 
	C664.555786,441.661926 668.084229,441.891479 671.276672,444.184998 
	C675.847961,447.469025 678.274719,453.207916 676.912292,458.099915 
	C675.226990,464.151550 670.378174,468.230530 664.249695,468.267395 
	C647.428345,468.368530 630.606079,468.316223 613.784180,468.315765 
	C526.176880,468.313354 438.569611,468.311035 350.962311,468.298981 
	C343.327942,468.297943 339.145996,465.737793 336.711060,459.690979 
	C333.223907,451.031006 339.198761,441.797241 348.539337,441.741699 
	C367.525696,441.628815 386.513092,441.694550 406.000061,441.686462 
z"/>
<path fill="#000000" opacity="1.000000" stroke="none" 
	d="
M458.000000,352.926147 
	C524.653076,352.908661 590.806091,352.883850 656.959167,352.890564 
	C660.114563,352.890900 663.324097,352.854309 666.414062,353.384949 
	C672.912720,354.500885 676.960938,359.396973 677.237610,365.915161 
	C677.469910,371.387848 673.389587,376.643402 667.644531,378.464447 
	C665.532288,379.133942 663.406372,379.258484 661.235535,379.258606 
	C557.589355,379.263519 453.943207,379.276764 350.297028,379.269409 
	C341.590668,379.268768 335.875824,374.082886 335.721405,366.214233 
	C335.563629,358.171997 341.090759,353.016144 350.523651,352.989807 
	C386.182220,352.890198 421.841187,352.934570 458.000000,352.926147 
z"/>
<path fill="#000000" opacity="1.000000" stroke="none" 
	d="
M509.999878,553.402832 
	C456.185822,553.391174 402.871735,553.391235 349.557678,553.353760 
	C342.657349,553.348877 338.911285,550.869507 336.729889,545.186157 
	C333.309265,536.274170 338.787415,527.885498 348.319031,527.750671 
	C358.979736,527.599915 369.644196,527.709534 380.307007,527.709534 
	C474.606445,527.709351 568.905884,527.707092 663.205322,527.716064 
	C670.433105,527.716736 674.809204,530.824707 676.711426,537.186523 
	C678.264099,542.379395 675.911743,548.163269 671.063660,551.491516 
	C668.246338,553.425598 665.117798,553.385498 661.945435,553.385681 
	C611.463562,553.388855 560.981750,553.396301 509.999878,553.402832 
z"/>
<path fill="#000000" opacity="1.000000" stroke="none" 
	d="
M527.000000,615.706299 
	C536.330627,615.703918 545.161438,615.658386 553.991760,615.713074 
	C561.170715,615.757568 566.118225,620.478577 566.306091,627.316772 
	C566.525696,635.311157 561.891479,640.811035 554.531433,641.264832 
	C553.535217,641.326355 552.532654,641.290710 551.533020,641.290710 
	C484.553680,641.292969 417.574371,641.278748 350.595062,641.336121 
	C346.777863,641.339417 343.333801,640.707886 340.366211,638.202942 
	C336.232391,634.713623 334.652649,629.207520 336.368561,624.218750 
	C338.165100,618.995544 342.377014,615.778748 348.055145,615.742676 
	C362.383484,615.651733 376.712769,615.708557 391.041656,615.708191 
	C436.194427,615.707153 481.347229,615.707031 527.000000,615.706299 
z"/>
<path fill="#000000" opacity="1.000000" stroke="none" 
	d="
M411.000000,266.800720 
	C440.964874,266.806122 470.429810,266.791931 499.894623,266.832611 
	C506.893127,266.842255 512.069214,270.310364 513.930786,275.993195 
	C515.731628,281.490356 513.615356,287.639465 508.769958,291.016632 
	C506.361786,292.695038 503.700897,293.327911 500.768402,293.326050 
	C450.161713,293.294220 399.554962,293.319489 348.948334,293.276672 
	C341.188416,293.270111 335.724060,287.681030 335.712036,280.068512 
	C335.700256,272.598083 341.217590,266.898499 349.073639,266.848785 
	C369.548370,266.719177 390.024445,266.802673 411.000000,266.800720 
z"/>
</svg>