<svg version="1.1" id="Layer_1" xmlns="http://www.w3.org/2000/svg" xmlns:xlink="http://www.w3.org/1999/xlink" x="0px" y="0px"
	 width="100%" viewBox="0 0 1024 1024" enable-background="new 0 0 1024 1024" xml:space="preserve">
<path fill="#000000" opacity="1.000000" stroke="none" 
	d="
M829.349121,566.000122 
	C829.348938,664.166016 829.080383,761.833130 829.523010,859.497009 
	C829.644653,886.336975 809.078552,912.060303 781.584961,917.348450 
	C777.968140,918.044189 774.364319,918.393250 770.684448,918.392822 
	C595.019226,918.372314 419.353943,918.396545 243.688705,918.356750 
	C211.601410,918.349487 185.655975,892.194153 185.655029,860.078186 
	C185.648224,628.246704 185.686646,396.415192 185.607727,164.583694 
	C185.597336,134.063141 211.574738,107.468803 242.448959,107.524750 
	C375.114136,107.765121 507.780121,107.715088 640.445312,107.494019 
	C654.606445,107.470428 665.888794,112.342155 675.664795,122.190704 
	C700.438232,147.147888 725.360413,171.957428 750.243530,196.805466 
	C770.645325,217.178497 791.022095,237.576996 811.521423,257.851501 
	C819.873352,266.111694 826.341797,275.325958 828.768982,287.066284 
	C829.354858,289.900116 829.332214,292.689789 829.332825,295.505280 
	C829.352234,385.503540 829.348877,475.501801 829.349121,566.000122 
M642.619263,146.733551 
	C642.554199,138.352951 642.554199,138.357849 634.377686,138.357941 
	C505.897461,138.359238 377.417267,138.355530 248.937042,138.363205 
	C228.600693,138.364410 216.381149,150.703552 216.383133,171.082825 
	C216.401276,357.720551 216.409836,544.358276 216.416260,730.995972 
	C216.417694,772.656189 216.477722,814.316711 216.357101,855.976562 
	C216.298553,876.192932 232.019745,887.957336 248.362488,887.922668 
	C421.835022,887.554382 595.308594,887.692627 768.781921,887.677124 
	C785.814880,887.675659 798.631836,875.055298 798.634033,858.144104 
	C798.658203,673.672485 798.628845,489.200897 798.748230,304.729370 
	C798.751587,299.577881 797.077637,298.217377 792.144104,298.252808 
	C765.316345,298.445618 738.486145,298.280579 711.657410,298.382294 
	C705.115417,298.407104 698.701111,297.677185 692.377258,296.196564 
	C660.222839,288.668121 641.883362,259.042145 642.463074,234.161911 
	C643.134521,205.348724 642.616150,176.507828 642.619263,146.733551 
M678.941711,251.538269 
	C686.506775,262.358398 697.221252,267.377808 710.093445,267.551117 
	C729.745911,267.815643 749.404663,267.619629 769.060730,267.578674 
	C770.976501,267.574677 773.073853,268.000305 774.705505,266.142456 
	C740.762390,232.586121 706.862427,199.072327 673.265564,165.858276 
	C673.278320,165.726395 673.109070,166.660477 673.109375,167.594543 
	C673.115601,189.582321 673.168701,211.570145 673.143555,233.557877 
	C673.136230,239.944794 675.189087,245.628860 678.941711,251.538269 
z"/>
<path fill="#000000" opacity="1.000000" stroke="none" 
	d="
M603.861328,477.901306 
	C614.383667,465.374146 627.697449,459.384827 643.465271,457.482513 
	C654.803162,456.114685 665.725464,457.097839 676.460327,460.439697 
	C695.658569,466.416199 707.130615,480.359955 714.159851,498.410248 
	C722.624207,520.145813 723.557373,542.763428 721.627625,565.726196 
	C720.556885,578.467285 717.766785,590.695679 712.216858,602.199951 
	C701.990112,623.398682 685.034546,634.724792 661.540710,636.446960 
	C643.994385,637.733093 627.271790,635.528137 612.596680,624.982178 
	C599.785095,615.775391 592.877502,602.394836 588.924866,587.722900 
	C580.664368,557.060059 581.427063,526.543152 592.773743,496.616547 
	C595.327820,489.880371 598.998352,483.724701 603.861328,477.901306 
M654.423157,604.899109 
	C667.492188,604.870850 675.395813,597.761475 679.871033,586.141785 
	C681.059814,583.055298 681.982910,579.829102 682.663574,576.590454 
	C686.011353,560.660522 686.077393,544.547058 684.459900,528.461304 
	C683.596985,519.879272 681.780457,511.374268 677.571655,503.628662 
	C669.577942,488.917328 651.368042,484.373535 637.733215,493.759979 
	C631.064148,498.351074 627.755310,505.245697 625.501465,512.681274 
	C621.097717,527.209106 620.698364,542.197571 621.545288,557.147583 
	C622.105957,567.045227 623.234497,577.025024 627.266785,586.325928 
	C632.248413,597.816589 640.184204,605.170288 654.423157,604.899109 
z"/>
<path fill="#000000" opacity="1.000000" stroke="none" 
	d="
M365.522522,567.639526 
	C338.487305,586.117859 287.063599,576.593628 280.653015,531.564026 
	C278.518494,516.570801 277.911438,501.405518 285.809174,487.794952 
	C296.361786,469.609192 312.569611,459.742920 333.626556,457.530365 
	C346.150177,456.214447 358.251160,457.276031 369.798523,462.212128 
	C389.083832,470.455872 400.129883,486.123322 405.097534,505.606201 
	C413.006775,536.625671 412.242157,567.600708 399.700104,597.517517 
	C389.451691,621.963196 370.095123,634.252258 344.271027,637.412048 
	C327.937683,639.410461 312.514771,636.254761 297.657990,629.671509 
	C295.091156,628.533997 292.727020,626.915222 290.333130,625.416687 
	C286.459076,622.991577 285.647949,619.266174 287.186798,615.384949 
	C289.144073,610.448303 291.470947,605.607483 294.144928,601.020447 
	C296.655029,596.714600 300.610687,596.972900 304.626587,599.003601 
	C313.397064,603.438599 322.743408,605.571716 332.521393,605.634583 
	C356.327759,605.787659 368.450043,595.584717 372.536255,571.980530 
	C373.144897,568.464661 374.272461,564.948975 373.569489,561.049866 
	C370.891235,563.252258 368.353912,565.338745 365.522522,567.639526 
M342.491760,546.650574 
	C358.209229,546.325928 374.554016,537.925476 370.773987,513.548279 
	C368.312286,497.672913 357.587769,488.987488 340.821106,489.262268 
	C326.248138,489.501099 316.874084,498.103790 315.579071,514.048706 
	C314.177551,531.305176 321.009583,546.007568 342.491760,546.650574 
z"/>
<path fill="#000000" opacity="1.000000" stroke="none" 
	d="
M444.870239,537.893372 
	C462.284454,513.462830 479.560638,489.369537 496.038361,464.720032 
	C498.464142,461.091278 501.402740,459.255157 505.987549,459.467041 
	C513.304504,459.805206 520.647461,459.586060 527.979431,459.594727 
	C537.494446,459.605988 538.368774,460.422302 538.380676,469.718750 
	C538.418457,499.046844 538.428345,528.374939 538.457214,557.703003 
	C538.458862,559.367737 538.495239,561.034424 538.584229,562.696533 
	C538.763428,566.043640 540.208130,567.887878 543.916687,567.684875 
	C547.737488,567.475708 551.579651,567.688660 555.411804,567.649963 
	C559.374817,567.609924 561.253845,569.688110 561.305237,573.477417 
	C561.381958,579.142029 561.352356,584.808472 561.327209,590.473877 
	C561.307312,594.953186 558.947693,597.230530 554.535522,597.343384 
	C551.038208,597.432861 547.525024,597.572083 544.041199,597.345642 
	C539.796753,597.069702 538.088501,598.519165 538.287048,603.028198 
	C538.631104,610.841736 538.440491,618.681030 538.393616,626.509033 
	C538.357727,632.491760 536.636841,634.401611 530.676453,634.317200 
	C524.018250,634.223022 517.396973,635.365173 510.712341,634.551392 
	C505.813538,633.955017 503.662659,631.340515 503.661377,626.603210 
	C503.659241,618.771240 503.377747,610.926392 503.747253,603.112183 
	C503.973145,598.335449 502.200378,597.240417 497.722504,597.282776 
	C476.061493,597.488037 454.397583,597.390564 432.734680,597.379395 
	C425.304901,597.375549 423.733704,595.822998 423.051300,588.519775 
	C421.917908,576.390442 423.044647,565.115845 431.977844,555.504272 
	C436.815765,550.298950 440.456604,543.981079 444.870239,537.893372 
M466.507172,557.947510 
	C464.681335,560.782837 461.961578,563.111938 461.232269,566.627563 
	C462.954193,567.901978 464.665009,567.616394 466.291992,567.619873 
	C476.782501,567.642334 487.278625,567.430725 497.761200,567.720215 
	C502.412781,567.848755 503.800018,566.249329 503.737122,561.685730 
	C503.512299,545.370178 503.660980,529.049561 503.630798,512.730896 
	C503.626740,510.539978 503.407379,508.349396 503.224304,504.997589 
	C490.612885,523.201233 478.775940,540.286926 466.507172,557.947510 
z"/>
<path fill="#000000" opacity="1.000000" stroke="none" 
	d="
M374.792633,318.004639 
	C374.799469,313.507538 374.732819,309.507324 374.838806,305.511627 
	C374.959595,300.960327 377.015442,298.391815 381.962189,298.576904 
	C386.620300,298.751160 391.290558,298.569031 395.954559,298.623230 
	C402.113220,298.694763 403.163025,299.826691 403.394897,305.925293 
	C404.300201,329.737854 403.928040,353.547607 403.439423,377.361908 
	C403.159973,390.982910 409.028107,399.265656 420.528046,402.095245 
	C437.016266,406.152161 449.627228,396.399261 449.655457,379.488129 
	C449.694702,355.998199 449.661804,332.508087 449.666962,309.018066 
	C449.669067,299.379089 450.466919,298.595978 460.292969,298.574768 
	C464.124451,298.566498 467.956879,298.655457 471.787323,298.597870 
	C476.108307,298.532928 478.331635,300.551178 478.331512,304.900421 
	C478.330688,332.055450 478.841736,359.223633 478.154114,386.361389 
	C477.592316,408.534332 460.596436,424.998962 437.197510,428.404663 
	C423.357300,430.419098 410.365234,428.378479 398.051575,421.946259 
	C384.126587,414.672363 377.269806,402.491150 375.756622,387.402557 
	C373.458801,364.490784 375.253906,341.470947 374.792633,318.004639 
z"/>
<path fill="#000000" opacity="1.000000" stroke="none" 
	d="
M591.404907,426.875885 
	C582.415771,425.774261 580.970398,423.619720 583.704773,415.383575 
	C596.018616,378.292664 608.414917,341.229065 620.721069,304.135559 
	C622.160217,299.797607 624.671509,297.492004 629.468933,297.629150 
	C636.128052,297.819489 642.798706,297.774475 649.460632,297.639740 
	C653.988586,297.548187 656.668335,299.754486 658.025513,303.828796 
	C670.534973,341.382751 683.058411,378.932068 695.488586,416.512268 
	C697.864197,423.694519 695.764709,426.325012 688.196228,426.429565 
	C684.369690,426.482391 680.545044,426.740936 676.719177,426.749084 
	C672.351440,426.758392 669.603882,424.628235 668.348999,420.341614 
	C666.573730,414.277435 664.487854,408.304138 662.714722,402.239380 
	C661.874451,399.365143 660.261963,398.290497 657.281982,398.319336 
	C645.453430,398.433807 633.622375,398.438263 621.793945,398.317596 
	C618.799927,398.287109 617.185547,399.403473 616.342529,402.236359 
	C614.586853,408.135864 612.520325,413.945068 610.852417,419.867706 
	C609.598572,424.320038 607.136780,426.685211 602.328613,426.560974 
	C598.842346,426.470856 595.345886,426.777435 591.404907,426.875885 
M641.478394,373.695892 
	C645.361206,373.385681 649.359680,374.426697 653.714478,372.765991 
	C649.206787,358.399475 644.771912,344.265076 640.337097,330.130646 
	C639.847473,330.120239 639.357849,330.109833 638.868225,330.099426 
	C634.348328,344.335754 629.828369,358.572083 625.026917,373.695251 
	C630.918152,373.695251 635.703979,373.695251 641.478394,373.695892 
z"/>
<path fill="#000000" opacity="1.000000" stroke="none" 
	d="
M276.668152,411.963440 
	C276.669159,376.977875 276.664703,342.485931 276.675964,307.993988 
	C276.678619,299.814331 277.833069,298.619781 285.797424,298.611328 
	C306.959137,298.588928 328.120819,298.583191 349.282532,298.599701 
	C355.978760,298.604919 357.883636,300.447510 358.091217,307.098053 
	C358.184753,310.094391 358.199280,313.099701 358.084534,316.094604 
	C357.858490,321.994537 355.731079,324.132538 349.692230,324.176453 
	C337.029205,324.268585 324.358917,324.433441 311.704376,324.093170 
	C306.622314,323.956512 304.864716,325.481445 305.254822,330.578949 
	C305.673157,336.045746 305.501526,341.574707 305.298370,347.065857 
	C305.168884,350.566162 306.494385,351.729889 309.952881,351.682678 
	C321.114807,351.530273 332.280365,351.598175 343.444214,351.646271 
	C349.492249,351.672302 351.183472,353.344696 351.303650,359.306396 
	C351.374146,362.803986 351.416199,366.308594 351.277344,369.802338 
	C351.104553,374.150024 349.001770,376.463898 344.345886,376.409119 
	C334.016449,376.287567 323.684509,376.376740 313.353607,376.379395 
	C305.355225,376.381470 305.352203,376.381073 305.349426,384.129852 
	C305.345276,395.627167 305.375214,407.124603 305.332458,418.621765 
	C305.310272,424.590851 304.050293,425.898590 298.199066,426.539001 
	C293.544159,427.048462 288.876923,427.108276 284.226837,426.703247 
	C278.333008,426.189911 276.772156,424.388367 276.678802,418.455841 
	C276.647339,416.456696 276.670319,414.456696 276.668152,411.963440 
z"/>
<path fill="#000000" opacity="1.000000" stroke="none" 
	d="
M575.960815,298.593323 
	C589.337219,298.586731 589.337219,298.586731 589.341553,311.264862 
	C589.345764,323.627228 588.750488,324.223450 576.431396,324.220520 
	C571.101379,324.219238 565.760437,324.434540 560.444641,324.160706 
	C555.952393,323.929260 555.283081,326.193909 555.297119,329.973022 
	C555.404663,358.954742 555.360107,387.936951 555.387024,416.919037 
	C555.394836,425.319031 554.423584,426.514954 546.122986,426.814606 
	C541.977295,426.964233 537.811707,426.682037 533.659424,426.498230 
	C528.940308,426.289368 527.569214,423.396484 527.593018,419.097717 
	C527.679810,403.441162 527.640198,387.783905 527.643372,372.126892 
	C527.646301,357.968964 527.523865,343.809418 527.715576,329.654114 
	C527.772156,325.478546 526.280396,324.053284 522.192322,324.181854 
	C515.203857,324.401611 508.201691,324.308014 501.207825,324.191498 
	C495.695984,324.099701 493.515015,322.161804 493.140686,316.801453 
	C492.874725,312.992218 492.900818,309.132050 493.179688,305.322693 
	C493.566772,300.034882 495.272491,298.640503 501.013550,298.630737 
	C525.831482,298.588501 550.649597,298.601074 575.960815,298.593323 
z"/>
<path fill="#000000" opacity="1.000000" stroke="none" 
	d="
M580.604370,751.394836 
	C570.691467,767.451965 554.943481,774.166626 536.824646,770.306641 
	C519.901306,766.701233 508.195404,753.496521 505.594971,735.565369 
	C503.970764,724.365662 504.064392,713.393555 507.964661,702.629089 
	C513.817383,686.475708 526.790588,676.947510 543.377380,676.681030 
	C562.575378,676.372681 575.851257,684.437866 582.271118,701.173096 
	C588.683655,717.889587 588.388733,734.649109 580.604370,751.394836 
M562.268555,704.296082 
	C558.188293,697.236450 551.867920,693.889221 543.952332,694.601440 
	C535.605225,695.352356 529.920959,700.175537 527.011108,708.131470 
	C523.206177,718.534668 523.255920,728.968628 526.884644,739.371948 
	C529.916138,748.063049 537.494690,753.611084 546.007324,753.604797 
	C554.473206,753.598572 561.576233,748.382080 564.497192,739.406128 
	C568.291931,727.745300 567.962036,716.179016 562.268555,704.296082 
z"/>
<path fill="#000000" opacity="1.000000" stroke="none" 
	d="
M623.994080,678.627625 
	C632.163330,678.481079 639.746216,678.620300 647.061096,681.594238 
	C663.073425,688.104248 670.069275,706.458923 662.269165,721.818604 
	C659.491455,727.288513 654.485901,730.243103 648.839783,733.251465 
	C653.306824,741.344910 657.498962,749.051147 661.795593,756.698669 
	C668.098267,767.916565 667.318848,768.986389 654.796875,769.469543 
	C648.478760,769.713379 645.041565,767.446899 642.486267,761.844055 
	C639.107361,754.435547 634.965271,747.373108 631.105652,740.186462 
	C629.222046,736.679138 623.431824,734.922119 619.993896,736.677979 
	C618.072083,737.659424 618.393250,739.424194 618.384216,741.039734 
	C618.343445,748.368408 618.268066,755.698669 618.373596,763.025879 
	C618.437500,767.460449 616.454163,769.452026 612.044189,769.332947 
	C601.873047,769.058167 599.363220,771.605652 599.282837,757.958252 
	C599.141663,733.978271 599.140686,709.997375 599.127014,686.017334 
	C599.123474,679.787903 600.550537,678.673401 607.005249,678.634827 
	C612.501770,678.601990 617.998718,678.627869 623.994080,678.627625 
M618.350220,707.512085 
	C618.656067,721.491211 615.871521,719.479553 630.937500,719.578308 
	C632.563110,719.588989 634.228027,719.200439 635.813416,718.770935 
	C643.702820,716.633850 647.059937,708.505798 642.872620,701.557922 
	C640.047607,696.870544 635.077148,696.134338 630.328308,695.532043 
	C618.649963,694.051025 618.346436,694.423767 618.351013,706.048035 
	C618.351074,706.214172 618.350769,706.380310 618.350220,707.512085 
z"/>
<path fill="#000000" opacity="1.000000" stroke="none" 
	d="
M280.980255,679.975525 
	C281.902252,679.370361 282.496521,678.838074 283.089172,678.839905 
	C295.705200,678.878662 308.413300,677.322266 320.908356,679.747559 
	C339.058258,683.270508 348.706451,698.781799 344.363770,716.602783 
	C342.911102,722.564148 339.644897,727.157776 334.385742,730.328491 
	C332.846344,731.256592 331.311737,732.192749 329.233215,733.453979 
	C332.935699,740.201782 336.519165,746.714844 340.084381,753.237976 
	C341.838470,756.447327 343.764435,759.584229 345.238281,762.919373 
	C346.819977,766.498474 345.407898,768.944580 341.630829,769.210205 
	C337.822144,769.478088 333.977386,769.360291 330.153412,769.245300 
	C326.818420,769.145081 325.341278,766.566467 324.007172,764.048157 
	C319.801941,756.110046 315.702820,748.115662 311.498383,740.177063 
	C309.640259,736.668701 304.495392,735.017273 300.890717,736.549805 
	C298.843506,737.420105 299.143982,739.204956 299.131439,740.801453 
	C299.076538,747.791321 299.164978,754.782715 299.078644,761.771973 
	C299.002136,767.968994 297.598907,769.262573 291.326233,769.326355 
	C279.653748,769.445007 279.651367,769.445007 279.649628,757.963318 
	C279.646057,734.162659 279.634308,710.362000 279.662140,686.561340 
	C279.664642,684.442261 279.168610,682.200562 280.980255,679.975525 
M315.275574,718.925964 
	C320.158295,718.017029 323.557556,715.333252 324.455444,710.352234 
	C325.255615,705.913330 324.737885,701.543640 320.584259,698.772766 
	C314.540924,694.741394 307.424896,694.227783 300.948700,695.994141 
	C297.156036,697.028442 299.731903,702.484192 299.117004,705.895691 
	C299.087952,706.056763 299.111084,706.227356 299.110657,706.393494 
	C299.070892,721.334290 299.070892,721.334290 315.275574,718.925964 
z"/>
<path fill="#000000" opacity="1.000000" stroke="none" 
	d="
M396.998352,751.654785 
	C401.661316,751.660095 405.829346,751.786133 409.987640,751.638245 
	C414.527863,751.476807 416.348419,753.745605 416.288574,758.013245 
	C416.265228,759.678406 416.279755,761.344055 416.279724,763.009521 
	C416.279724,767.291382 414.319977,769.381348 409.858765,769.354431 
	C394.869781,769.264038 379.879456,769.260376 364.890656,769.367737 
	C360.356903,769.400208 358.639343,767.280701 358.646576,762.970825 
	C358.690460,736.822571 358.706970,710.673950 358.628479,684.525818 
	C358.615540,680.212891 360.535248,678.584351 364.690216,678.607178 
	C379.512726,678.688538 394.336487,678.705566 409.158630,678.595154 
	C413.624298,678.561951 415.664581,680.398682 415.360992,684.878052 
	C415.248627,686.536011 415.268585,688.211548 415.353699,689.872620 
	C415.582764,694.342163 413.366058,696.263855 409.039886,696.243713 
	C400.879120,696.205750 392.702362,696.543579 384.562714,696.128357 
	C379.339783,695.862000 377.591949,697.760437 378.286469,702.700623 
	C378.516052,704.333862 378.320343,706.026550 378.322235,707.692078 
	C378.330231,714.643433 378.330658,714.644287 385.532715,714.647949 
	C391.861603,714.651245 398.192719,714.754639 404.518585,714.617371 
	C408.576691,714.529358 410.341644,716.419128 410.303467,720.315979 
	C410.300201,720.648987 410.307556,720.982178 410.315552,721.315186 
	C410.568024,731.814331 410.143005,732.251282 399.539948,732.264954 
	C394.543457,732.271423 389.516632,732.596741 384.558716,732.156555 
	C379.300293,731.689697 377.659973,733.795349 378.268860,738.713562 
	C378.553162,741.010193 378.569733,743.404175 378.267181,745.695923 
	C377.605408,750.708740 379.847839,752.119263 384.513306,751.720520 
	C388.481476,751.381348 392.501831,751.653259 396.998352,751.654785 
z"/>
<path fill="#000000" opacity="1.000000" stroke="none" 
	d="
M493.858124,696.522583 
	C501.590820,720.406677 488.554260,738.012390 462.693359,739.190735 
	C462.194397,739.213501 461.694244,739.210999 461.194641,739.219177 
	C449.353363,739.412842 449.356079,739.412781 449.346466,751.061768 
	C449.342896,755.392334 449.383148,759.724121 449.291748,764.052979 
	C449.220032,767.449341 447.403290,769.066895 443.967346,769.335266 
	C430.399109,770.395142 429.712341,769.809631 429.710876,756.375549 
	C429.708344,733.223145 429.684418,710.070740 429.693237,686.918335 
	C429.696075,679.512024 430.576599,678.491028 438.107147,678.666260 
	C449.399109,678.929016 460.757874,677.501343 471.975677,679.654053 
	C481.888428,681.556152 489.479401,686.680847 493.858124,696.522583 
M475.879242,707.653381 
	C475.097046,699.367126 470.582825,695.623596 460.283081,695.459656 
	C447.445374,695.255188 449.539154,694.350159 449.352356,705.694763 
	C449.333191,706.858154 449.349304,708.022034 449.349182,709.185730 
	C449.347748,721.950378 449.347748,721.950317 461.948944,721.685181 
	C471.179962,721.490906 475.281921,717.615723 475.879242,707.653381 
z"/>
<path fill="#000000" opacity="1.000000" stroke="none" 
	d="
M693.907532,719.000000 
	C693.914673,712.673096 693.808777,706.842957 693.975769,701.020630 
	C694.072815,697.634888 692.888367,696.152344 689.359192,696.306091 
	C684.873047,696.501526 680.371155,696.319824 675.876160,696.333801 
	C672.390808,696.344604 670.842041,694.674255 670.630066,691.160767 
	C669.893555,678.950134 670.115173,678.633118 682.505981,678.628296 
	C698.321960,678.622192 714.137939,678.624268 729.953857,678.666626 
	C736.254150,678.683533 737.257019,679.710449 737.338257,685.877563 
	C737.360168,687.541992 737.339661,689.207214 737.318298,690.871887 
	C737.270874,694.568726 735.342712,696.335205 731.692871,696.334534 
	C727.364319,696.333740 723.024902,696.536316 718.710266,696.293945 
	C714.527893,696.059143 713.249084,697.769043 713.280884,701.847473 
	C713.435486,721.657898 713.358154,741.470215 713.343994,761.281860 
	C713.338745,768.625488 712.654236,769.289856 705.347412,769.325378 
	C694.140747,769.379822 693.918762,769.140015 693.929871,757.957886 
	C693.942627,745.138611 693.917603,732.319275 693.907532,719.000000 
z"/>
</svg>