<?xml version="1.0" standalone="no"?>
<!DOCTYPE svg PUBLIC "-//W3C//DTD SVG 20010904//EN"
 "http://www.w3.org/TR/2001/REC-SVG-20010904/DTD/svg10.dtd">
<svg version="1.0" xmlns="http://www.w3.org/2000/svg"
 width="1024.000000pt" height="1024.000000pt" viewBox="0 0 1024.000000 1024.000000"
 preserveAspectRatio="xMidYMid meet">

<g transform="translate(0.000000,1024.000000) scale(0.100000,-0.100000)"
fill="#000000" stroke="none">
<path d="M2412 9200 c-201 -53 -346 -188 -420 -392 l-27 -73 0 -3460 0 -3460
23 -63 c53 -146 174 -284 307 -347 147 -70 -56 -66 2830 -63 l2600 3 79 28
c100 35 171 83 241 159 63 70 129 198 144 278 6 36 11 1035 13 2850 l3 2795
-29 75 c-15 41 -44 96 -63 122 -19 26 -359 370 -756 763 -624 619 -730 720
-782 746 -126 62 -13 59 -2145 58 -1881 0 -1947 -1 -2018 -19z m3952 -739 c4
-245 11 -473 17 -506 36 -206 191 -410 381 -503 133 -65 163 -70 533 -76 182
-3 390 -6 463 -6 l132 0 -2 -2747 c-3 -2567 -4 -2751 -20 -2791 -26 -64 -62
-106 -120 -138 l-53 -29 -2615 0 -2615 0 -41 22 c-22 12 -57 40 -77 62 -73 81
-67 -233 -65 3546 l3 3400 28 57 c28 57 78 106 133 130 35 16 803 23 2660 24
l1252 1 6 -446z m1274 -773 c1 -5 -132 -8 -296 -8 -237 0 -310 3 -357 16 -149
38 -259 152 -301 309 -10 36 -14 131 -14 350 l0 300 483 -480 c266 -264 485
-483 485 -487z"/>
<path d="M6403 7280 c-13 -5 -23 -11 -23 -13 0 -2 -90 -265 -200 -583 -126
-363 -200 -590 -198 -609 l3 -30 106 -3 c87 -2 110 0 123 13 9 9 34 75 57 146
l40 129 221 -2 221 -3 43 -128 c24 -71 48 -135 55 -143 8 -10 38 -14 115 -14
166 0 172 -60 -69 635 -113 322 -210 592 -216 598 -15 15 -246 21 -278 7z
m202 -475 c36 -113 68 -212 72 -220 4 -13 -17 -15 -141 -15 -80 0 -146 3 -146
7 0 12 141 433 145 433 2 0 33 -92 70 -205z"/>
<path d="M2972 7268 c-9 -9 -12 -158 -12 -609 l0 -598 22 -15 c28 -20 207 -23
226 -4 9 9 12 77 12 245 l0 233 208 0 c148 0 211 3 220 12 8 8 12 47 12 110 0
86 -2 98 -19 108 -12 6 -101 10 -220 10 l-201 0 0 94 c0 51 3 114 6 140 l7 46
242 0 c213 0 244 2 256 17 19 22 19 184 0 206 -12 15 -51 17 -380 17 -272 0
-370 -3 -379 -12z"/>
<path d="M3952 7268 c-20 -20 -17 -808 4 -898 67 -298 422 -447 730 -306 67
31 162 119 197 184 54 99 57 130 57 587 0 314 -3 424 -12 433 -17 17 -229 17
-246 0 -9 -9 -12 -117 -12 -422 0 -392 -1 -413 -21 -456 -41 -91 -96 -123
-209 -123 -115 0 -168 32 -212 128 -23 50 -23 51 -20 457 3 397 3 407 -17 417
-28 15 -224 14 -239 -1z"/>
<path d="M5102 7268 c-8 -8 -12 -47 -12 -110 0 -86 2 -98 19 -108 11 -5 86
-10 170 -10 l151 0 0 -488 c0 -366 3 -491 12 -500 16 -16 220 -16 236 0 9 9
12 134 12 500 l0 488 159 0 c192 0 191 -1 191 120 0 52 -5 82 -16 98 l-15 22
-448 0 c-334 0 -450 -3 -459 -12z"/>
<path d="M3485 5784 c-149 -32 -292 -129 -362 -246 -64 -105 -89 -284 -62
-434 16 -91 73 -200 139 -265 104 -104 241 -155 395 -146 143 8 263 64 334
157 l34 45 -7 -50 c-21 -154 -62 -252 -138 -328 -62 -62 -118 -86 -223 -94
-83 -6 -184 13 -277 52 -100 43 -107 41 -150 -40 -56 -105 -65 -140 -43 -165
29 -33 97 -68 197 -102 87 -30 102 -32 233 -32 226 -1 344 43 481 179 169 169
243 406 231 750 -6 189 -27 288 -88 413 -119 247 -396 369 -694 306z m289
-308 c92 -45 138 -128 138 -251 1 -89 -21 -144 -78 -193 -52 -47 -100 -62
-191 -62 -180 0 -273 91 -273 268 0 98 26 160 87 211 80 67 213 78 317 27z"/>
<path d="M6345 5781 c-302 -87 -465 -372 -465 -816 0 -412 147 -695 412 -793
87 -32 219 -46 318 -32 269 37 439 200 517 498 21 81 26 126 30 279 6 201 -8
324 -52 453 -75 219 -221 364 -420 415 -82 21 -262 19 -340 -4z m300 -309 c56
-28 89 -66 124 -142 46 -100 64 -203 65 -375 1 -276 -60 -436 -190 -501 -54
-26 -184 -26 -238 0 -80 40 -130 112 -161 231 -55 215 -39 517 35 667 37 72
86 115 160 139 44 15 162 4 205 -19z"/>
<path d="M5108 5769 c-16 -9 -592 -834 -669 -957 -30 -49 -33 -60 -36 -155 -3
-72 0 -109 9 -127 l14 -25 369 -5 370 -5 3 -150 c3 -190 -1 -185 151 -185 156
0 151 -6 151 186 l0 154 95 0 c115 0 115 0 115 137 0 133 -3 137 -114 142
l-86 3 0 479 c0 466 -1 480 -20 499 -18 18 -33 20 -177 20 -88 0 -166 -5 -175
-11z m57 -954 l-5 -40 -168 3 c-92 1 -184 3 -205 5 l-38 2 102 150 c56 83 150
220 208 305 l106 155 3 -270 c2 -148 0 -288 -3 -310z"/>
<path d="M3984 3770 c-141 -30 -255 -141 -296 -288 -23 -85 -25 -262 -3 -347
44 -167 164 -280 325 -304 125 -20 241 13 326 91 56 51 83 92 114 173 21 53
24 77 24 200 1 121 -2 149 -22 207 -58 168 -181 262 -355 273 -40 2 -91 0
-113 -5z m151 -171 c62 -17 118 -82 140 -162 23 -87 17 -250 -12 -317 -82
-185 -323 -165 -389 32 -24 71 -24 222 -1 301 37 121 141 179 262 146z"/>
<path d="M6765 3771 c-140 -38 -217 -128 -216 -252 0 -125 67 -199 219 -245
194 -58 211 -65 237 -95 51 -62 20 -153 -62 -180 -76 -25 -169 4 -256 81 -42
37 -51 41 -71 32 -40 -18 -96 -73 -96 -94 0 -31 94 -116 168 -151 64 -30 73
-32 187 -32 108 0 125 3 175 26 99 46 156 126 167 232 7 73 -11 131 -59 183
-49 53 -107 81 -257 124 -129 38 -171 65 -171 112 0 120 164 130 333 21 l28
-18 45 47 c24 26 44 54 44 62 0 23 -107 103 -170 127 -60 23 -194 34 -245 20z"/>
<path d="M2988 3749 c-17 -9 -18 -41 -18 -442 0 -324 3 -436 12 -445 18 -18
152 -16 168 3 9 11 10 55 5 180 l-7 165 165 0 166 0 7 36 c9 48 -2 106 -23
121 -12 9 -62 13 -165 13 l-148 0 0 105 0 105 188 0 c133 0 192 4 200 12 7 7
12 38 12 69 0 90 3 89 -295 89 -151 0 -257 -5 -267 -11z"/>
<path d="M4668 3750 c-17 -10 -18 -43 -18 -450 l0 -440 23 -5 c12 -3 52 -5 87
-3 l65 3 3 158 3 158 66 -3 66 -3 77 -149 c43 -82 84 -152 92 -157 7 -5 48 -9
91 -9 59 0 79 4 83 15 3 8 -33 86 -80 173 -47 88 -86 162 -86 166 0 3 13 12
29 20 86 45 133 132 134 246 1 138 -61 226 -187 266 -63 20 -421 31 -448 14z
m387 -166 c62 -29 85 -127 45 -192 -29 -47 -73 -62 -180 -62 l-90 0 0 135 0
135 96 0 c67 0 106 -5 129 -16z"/>
<path d="M6158 3748 c-14 -11 -91 -219 -211 -563 -11 -33 -22 -53 -25 -45 -23
74 -207 588 -215 598 -6 8 -41 12 -107 12 -80 0 -99 -3 -104 -16 -3 -9 -6
-206 -6 -438 0 -315 3 -425 12 -434 17 -17 133 -16 147 2 9 10 11 93 9 300 -2
157 -1 286 2 286 3 0 38 -94 79 -208 40 -114 85 -233 99 -265 27 -62 41 -71
108 -65 35 3 41 8 62 48 12 25 59 149 105 275 l82 230 5 -305 5 -305 75 0 75
0 3 443 2 442 -26 10 c-37 14 -157 12 -176 -2z"/>
</g>
</svg>
