<?xml version="1.0" standalone="no"?>
<!DOCTYPE svg PUBLIC "-//W3C//DTD SVG 20010904//EN"
 "http://www.w3.org/TR/2001/REC-SVG-20010904/DTD/svg10.dtd">
<svg version="1.0" xmlns="http://www.w3.org/2000/svg"
 width="1024.000000pt" height="1024.000000pt" viewBox="0 0 1024.000000 1024.000000"
 preserveAspectRatio="xMidYMid meet">

<g transform="translate(0.000000,1024.000000) scale(0.100000,-0.100000)"
fill="#000000" stroke="none">
<path d="M2370 9280 c-124 -22 -281 -108 -362 -199 -86 -97 -138 -208 -158
-338 -17 -109 -8 -6662 9 -6728 7 -27 33 -92 57 -143 75 -156 212 -281 376
-340 l73 -27 2605 -3 c2399 -3 2611 -2 2675 14 191 45 362 182 450 359 70 142
65 -85 65 2865 0 2226 -2 2673 -14 2716 -32 121 -32 121 -815 907 -411 412
-771 768 -801 791 -72 56 -173 103 -258 121 -57 12 -354 15 -1962 14 -1042 -1
-1915 -5 -1940 -9z m3792 -807 c4 -462 5 -492 25 -564 76 -271 269 -463 546
-542 68 -19 103 -21 580 -24 l507 -4 -2 -2627 -3 -2627 -24 -52 c-28 -63 -112
-145 -178 -176 l-48 -22 -2540 -3 c-2821 -2 -2593 -8 -2701 64 -56 37 -114
113 -136 179 -11 33 -13 603 -13 3335 l0 3295 27 55 c47 95 133 167 225 189
21 5 849 9 1885 10 l1847 1 3 -487z m1388 -799 c2 -3 -162 -4 -365 -2 l-370 3
-67 32 c-37 17 -90 53 -118 79 -58 54 -115 160 -130 243 -6 29 -10 201 -10
381 l0 326 528 -528 c290 -291 529 -531 532 -534z"/>
<path d="M3819 7130 c-133 -13 -243 -58 -331 -139 -101 -92 -143 -205 -136
-366 4 -88 9 -110 38 -174 66 -142 168 -203 468 -281 209 -54 240 -66 289
-113 59 -56 54 -153 -10 -215 -44 -43 -97 -63 -183 -69 -162 -13 -292 69 -313
197 l-6 35 -149 3 c-179 3 -181 2 -172 -80 22 -218 177 -376 415 -424 125 -25
328 -16 436 19 180 59 290 170 340 342 27 92 17 244 -20 321 -64 130 -186 206
-430 269 -200 52 -258 72 -304 105 -118 86 -85 233 63 280 57 18 184 8 241
-20 56 -27 102 -82 113 -135 l8 -40 149 0 150 0 -1 76 c-2 98 -32 168 -110
249 -118 124 -313 181 -545 160z"/>
<path d="M4722 7088 c-19 -19 -16 -1016 3 -1123 42 -235 222 -410 474 -461
114 -22 318 -15 411 14 199 64 341 205 406 402 16 50 19 107 22 603 2 411 0
552 -9 563 -16 19 -304 21 -316 2 -4 -7 -10 -254 -13 -548 -5 -532 -5 -535
-28 -581 -54 -110 -139 -161 -277 -167 -121 -5 -189 19 -262 93 -89 91 -87 78
-89 676 -1 284 -4 522 -8 528 -10 16 -298 15 -314 -1z"/>
<path d="M6332 7088 c-17 -17 -18 -1538 0 -1556 18 -18 292 -17 307 2 8 10 10
224 9 787 l-3 774 -150 3 c-109 2 -154 -1 -163 -10z"/>
<path d="M3775 4916 c-163 -39 -282 -158 -336 -336 -18 -60 -23 -99 -23 -190
0 -176 38 -288 135 -394 92 -101 199 -147 345 -148 145 -1 240 34 336 121 67
61 123 163 143 258 19 89 19 251 0 332 -32 135 -136 272 -246 324 -97 45 -246
59 -354 33z m241 -204 c55 -28 97 -78 125 -149 20 -49 23 -76 23 -178 0 -102
-3 -129 -23 -178 -54 -137 -174 -201 -306 -162 -73 21 -125 68 -160 147 -24
53 -29 80 -33 168 -8 202 47 319 174 366 52 19 148 13 200 -14z"/>
<path d="M6970 4915 c-113 -32 -204 -118 -231 -220 -15 -53 -7 -162 14 -206
43 -88 139 -145 326 -193 57 -15 117 -34 133 -42 83 -43 81 -156 -5 -200 -38
-20 -126 -23 -179 -5 -42 14 -98 72 -98 101 0 29 -17 34 -112 36 -107 3 -115
-3 -99 -78 16 -72 53 -131 111 -177 77 -61 133 -76 285 -76 127 0 132 1 197
33 120 59 182 157 182 292 0 46 -7 80 -23 115 -43 97 -94 129 -293 186 -206
59 -228 73 -228 149 0 72 52 110 151 110 80 0 146 -39 164 -97 6 -22 11 -23
106 -23 72 0 99 3 100 13 9 110 -69 222 -190 268 -74 29 -232 36 -311 14z"/>
<path d="M2655 4898 c-3 -7 -4 -240 -3 -518 l3 -505 99 -3 c73 -2 102 1 108
10 4 7 8 97 8 201 l0 187 190 0 c172 0 191 2 197 18 6 15 8 71 4 150 l-1 22
-195 0 -195 0 0 130 0 130 223 2 222 3 0 90 0 90 -328 3 c-257 2 -329 0 -332
-10z"/>
<path d="M4555 4898 c-3 -7 -4 -240 -3 -518 l3 -505 98 -3 c97 -3 97 -3 107
23 6 15 10 99 10 188 l0 162 78 -3 c42 -2 80 -7 83 -10 4 -4 46 -81 94 -172
48 -91 92 -171 97 -177 7 -9 43 -13 114 -13 98 0 104 1 104 20 0 12 -45 102
-100 201 -55 100 -100 183 -100 185 0 2 15 10 34 18 53 22 111 81 137 139 33
72 34 229 2 298 -40 88 -123 148 -232 169 -81 15 -520 13 -526 -2z m484 -196
c19 -9 44 -29 55 -45 27 -37 28 -120 0 -167 -31 -54 -71 -68 -204 -72 -63 -2
-116 0 -118 5 -1 4 -2 72 -2 152 l0 145 118 0 c92 0 124 -4 151 -18z"/>
<path d="M5502 4898 c-9 -9 -12 -129 -12 -507 0 -273 4 -502 8 -509 6 -9 33
-12 98 -10 l89 3 5 364 5 364 104 -269 c57 -148 114 -293 127 -322 l23 -53 87
3 87 3 99 260 c54 143 106 285 116 315 l17 54 5 -359 5 -360 98 -3 c87 -2 97
-1 98 15 7 230 5 1001 -3 1011 -7 8 -48 12 -140 12 l-129 0 -18 -42 c-11 -24
-65 -169 -121 -323 -57 -154 -106 -284 -110 -288 -6 -7 -72 156 -198 493 l-58
155 -135 3 c-96 2 -138 -1 -147 -10z"/>
</g>
</svg>
