<svg version="1.1" id="Layer_1" xmlns="http://www.w3.org/2000/svg" xmlns:xlink="http://www.w3.org/1999/xlink" x="0px" y="0px"
	 width="100%" viewBox="0 0 1024 1024" enable-background="new 0 0 1024 1024" xml:space="preserve">
<path fill="#000000" opacity="1.000000" stroke="none" 
	d="
M323.193176,149.809143 
	C414.990662,149.798370 506.313110,149.815125 597.635437,149.719391 
	C603.519836,149.713226 608.210571,151.474686 612.377258,155.657990 
	C642.833984,186.235992 673.348877,216.756454 703.953308,247.186523 
	C708.155090,251.364380 709.050781,256.327667 709.053589,261.777435 
	C709.085327,323.102966 709.135376,384.428467 709.136230,445.753998 
	C709.137207,518.744995 709.092163,591.736023 709.078552,664.727051 
	C709.077698,669.235046 709.072815,673.763550 707.539856,678.053955 
	C703.987854,687.995117 695.906860,693.218567 684.146973,693.220825 
	C600.490173,693.236633 516.833374,693.231628 433.176605,693.232666 
	C397.847443,693.233093 362.518311,693.232056 327.189148,693.231384 
	C309.211426,693.231079 300.848511,684.977905 300.846252,667.005371 
	C300.828308,524.189392 300.839081,381.373383 300.840881,238.557373 
	C300.841156,216.560013 300.834351,194.562668 300.843079,172.565308 
	C300.848389,159.134766 309.361481,150.291306 323.193176,149.809143 
M349.500000,672.980713 
	C459.158173,672.962524 568.816345,672.941650 678.474487,672.931458 
	C686.850952,672.930664 687.040588,672.863159 687.084961,664.253174 
	C687.272095,627.965149 687.864624,591.670654 687.378906,555.390930 
	C687.091309,533.906067 687.409363,512.429199 687.184570,490.948456 
	C686.849792,458.960968 687.230713,426.966583 687.001465,394.977295 
	C686.713745,354.837189 688.310303,314.702942 687.222839,274.558624 
	C687.085815,269.497406 685.426819,268.090454 680.470947,268.146637 
	C659.308594,268.386688 638.140869,268.343811 616.976807,268.182190 
	C603.863708,268.082062 594.307739,258.747070 593.627747,245.694168 
	C593.316162,239.714386 593.147522,233.721466 593.121582,227.733612 
	C593.050110,211.245148 593.216125,194.754745 593.023193,178.268204 
	C592.940613,171.204697 592.642212,171.188797 585.640686,171.188629 
	C500.313019,171.186554 414.985382,171.188705 329.657715,171.196442 
	C322.328430,171.197098 322.321045,171.219208 322.321167,178.626266 
	C322.322479,265.120636 322.328613,351.615021 322.328522,438.109406 
	C322.328430,514.104492 322.320984,590.099548 322.320251,666.094604 
	C322.320190,672.527710 322.674072,672.936707 329.002045,672.995667 
	C335.500763,673.056274 342.000641,672.994873 349.500000,672.980713 
M615.812622,245.581055 
	C617.236572,247.245117 619.195190,246.716904 620.952576,246.720825 
	C635.591431,246.753494 650.230591,246.741638 664.869324,246.675446 
	C666.444153,246.668320 668.173340,247.203323 669.257751,246.322296 
	C651.404724,228.737885 633.576843,211.178284 615.490662,193.364227 
	C615.490662,210.361938 615.490662,227.573624 615.812622,245.581055 
M694.963928,506.435059 
	C695.012390,510.427704 694.834900,514.305664 693.688965,518.265259 
	C691.545654,525.670715 694.706360,532.387573 697.050110,539.385925 
	C700.899414,536.529114 701.764343,534.470581 701.999207,527.702759 
	C702.311218,518.711487 700.390320,509.807251 701.007629,500.781158 
	C701.325195,496.138702 701.108276,491.452667 700.986206,486.790131 
	C700.922241,484.345764 700.771057,481.784912 697.328857,480.411377 
	C693.200500,488.627716 695.872864,497.245697 694.963928,506.435059 
z"/>
<path fill="#000000" opacity="1.000000" stroke="none" 
	d="
M255.711670,773.999878 
	C255.710861,763.333923 255.871017,753.164246 255.632385,743.003906 
	C255.533356,738.787170 257.109589,737.543762 261.154236,737.605469 
	C273.817200,737.798462 286.487030,737.541077 299.149872,737.737427 
	C313.820923,737.964905 324.921387,746.448486 328.671234,760.205627 
	C331.940277,772.198853 328.237274,786.896301 315.413910,794.355286 
	C312.347656,796.138977 312.171082,797.723633 313.857147,800.709656 
	C319.834717,811.295715 325.522980,822.045166 331.328430,832.728638 
	C331.957977,833.887146 332.838745,834.971558 331.898590,837.122498 
	C325.611908,837.122498 319.011383,837.221313 312.416626,837.069092 
	C310.093231,837.015564 309.296356,834.784973 308.335968,833.067200 
	C303.297485,824.054993 298.332794,815.001404 293.275208,805.999939 
	C290.656464,801.339172 285.057495,799.420593 280.183807,801.266418 
	C277.631500,802.233032 278.055023,804.398315 278.037170,806.311829 
	C277.958008,814.809814 277.829865,823.311279 277.999481,831.805969 
	C278.081909,835.936157 276.454376,837.501953 272.399261,837.259399 
	C268.746307,837.040894 265.053162,837.009338 261.407135,837.284912 
	C256.995361,837.618469 255.617172,835.802673 255.653702,831.495422 
	C255.814819,812.498108 255.716278,793.498657 255.711670,773.999878 
M298.959717,756.307190 
	C293.440704,754.526978 287.751587,755.664917 282.149750,755.312012 
	C278.667877,755.092712 277.414886,756.687988 277.535492,760.064331 
	C277.766144,766.522156 277.899384,772.988708 277.833649,779.449280 
	C277.805176,782.247864 279.126892,782.830872 281.492371,782.777710 
	C285.805267,782.680542 290.128754,782.857361 294.433411,782.637634 
	C301.109192,782.296936 306.003632,778.003540 307.407776,771.571594 
	C308.753174,765.408752 305.823486,759.674072 298.959717,756.307190 
M325.000427,767.729431 
	C324.638824,765.795715 325.685211,763.487732 323.366791,761.551636 
	C320.671783,766.565857 315.826752,769.692993 314.979431,775.644287 
	C314.583771,778.423218 313.346771,781.044312 316.729004,782.351685 
	C320.048279,783.634644 322.472473,782.148132 324.004181,778.970093 
	C325.617126,775.623352 324.706787,772.083557 325.000427,767.729431 
z"/>
<path fill="#000000" opacity="1.000000" stroke="none" 
	d="
M579.247070,829.325073 
	C561.049866,844.037231 530.153748,842.162415 515.831055,822.625916 
	C510.380981,815.191956 507.110565,806.897644 506.155426,797.797363 
	C504.311615,780.229675 505.963409,763.480774 518.601379,749.610901 
	C539.052979,727.165833 578.413147,732.535095 590.981750,760.119263 
	C600.127747,780.191772 599.274231,800.483215 587.839111,819.831726 
	C585.694641,823.460205 582.609985,826.290771 579.247070,829.325073 
M552.287659,819.706177 
	C559.517334,819.391113 565.153503,816.056702 568.722778,809.930481 
	C577.106873,795.540283 577.072937,780.411255 569.529175,766.072083 
	C561.538025,750.882507 541.117126,751.100281 532.581238,766.038879 
	C525.133179,779.073792 525.661621,792.842651 531.101074,806.427795 
	C534.682495,815.372375 541.712585,819.778992 552.287659,819.706177 
M524.616577,774.312317 
	C524.251587,771.765808 527.068909,768.640808 524.677795,766.882446 
	C522.154968,765.027100 521.964172,769.479614 519.968750,770.015259 
	C519.668884,770.095825 519.328857,770.026489 518.989258,770.026489 
	C517.177429,768.893311 518.856201,765.901672 516.126160,765.005249 
	C513.425781,767.437012 513.019775,770.328186 514.073242,773.796021 
	C515.721680,779.222351 518.415161,784.546082 514.629395,790.359680 
	C513.294189,792.410034 514.396667,795.028381 516.670105,796.357178 
	C518.736572,797.564941 521.039062,798.368958 524.101440,799.736877 
	C525.175171,791.139282 522.488037,783.054504 524.616577,774.312317 
z"/>
<path fill="#000000" opacity="1.000000" stroke="none" 
	d="
M633.156006,813.028809 
	C633.118591,819.849121 633.030518,826.175781 633.070007,832.501709 
	C633.090515,835.789307 631.864868,837.392639 628.333740,837.224121 
	C624.014648,837.018066 619.675598,837.076538 615.350403,837.201477 
	C612.220093,837.291931 610.784424,836.095703 610.792297,832.848877 
	C610.865479,802.546631 610.894897,772.244263 610.867981,741.941895 
	C610.865112,738.671936 612.284607,737.620300 615.418762,737.645813 
	C628.904419,737.755676 642.395264,737.511108 655.876526,737.780762 
	C668.984314,738.042969 680.709167,747.056702 683.942993,758.798279 
	C687.838867,772.943726 683.273499,785.937134 671.306152,793.591675 
	C667.702515,795.896606 667.180908,797.790039 669.387146,801.532837 
	C674.708435,810.560364 679.579956,819.854187 684.574707,829.072144 
	C685.745850,831.233521 687.196960,833.307068 687.600403,836.525940 
	C680.519470,837.725952 673.497070,837.487915 666.506165,836.680603 
	C664.616272,836.462402 663.860107,834.299866 662.993774,832.689575 
	C657.947021,823.309509 652.937683,813.909241 647.860657,804.545593 
	C645.768738,800.687256 637.880859,798.964233 634.433594,801.462646 
	C633.128845,802.408325 633.198120,803.735413 633.173401,805.042725 
	C633.126160,807.539368 633.158752,810.037415 633.156006,813.028809 
M635.147705,755.476929 
	C633.585266,755.894165 633.091248,757.087585 633.088318,758.513184 
	C633.074036,765.510498 633.101013,772.507751 633.110901,779.505066 
	C633.114136,781.833679 634.393066,782.759888 636.593262,782.738586 
	C640.758118,782.698364 644.942200,782.925415 649.084412,782.604736 
	C657.604004,781.945129 662.118042,776.593201 661.883606,767.850952 
	C661.684998,760.444580 656.583069,755.609192 648.517639,755.363586 
	C644.356384,755.236816 640.187500,755.357910 635.147705,755.476929 
M627.575989,830.856628 
	C627.909241,830.283203 628.497559,829.726990 628.537476,829.133850 
	C629.117249,820.513550 630.143555,811.906433 629.740051,803.249084 
	C629.622131,800.719360 627.797546,798.227417 625.774353,797.927185 
	C619.999817,797.069946 617.799988,793.476074 616.723877,788.462463 
	C616.702820,788.364319 616.139465,788.382629 615.852661,788.349304 
	C615.022095,788.897461 615.046143,789.754822 614.966064,790.567322 
	C613.691528,803.498779 614.708984,816.473511 614.248413,829.420959 
	C614.187256,831.139160 614.490051,833.185242 616.411499,833.463684 
	C620.097961,833.998047 624.082214,835.144897 627.575989,830.856628 
M615.967224,761.778076 
	C616.530518,767.828064 614.659668,773.943420 616.217468,780.223022 
	C619.533997,776.298950 615.586914,771.157715 618.700500,766.578979 
	C621.071228,771.161560 618.488708,775.050293 619.863770,778.739075 
	C620.760925,781.145630 621.325195,783.903931 624.486023,783.721924 
	C627.732910,783.534851 628.999207,780.821655 628.960510,778.056274 
	C628.868225,771.451904 628.410278,764.850586 627.995361,758.254578 
	C627.904724,756.815002 627.709167,755.303040 625.924255,754.620178 
	C620.984741,752.730591 616.359802,755.610657 615.967224,761.778076 
M670.845947,832.974487 
	C674.292786,834.377441 677.862183,833.573547 679.297974,830.625183 
	C680.750000,827.643494 677.669617,825.935059 674.843689,824.474365 
	C673.662292,827.488220 671.193115,829.395691 670.845947,832.974487 
z"/>
<path fill="#000000" opacity="1.000000" stroke="none" 
	d="
M397.957397,837.229187 
	C381.813904,837.225037 366.162262,837.109680 350.513947,837.288269 
	C346.295868,837.336365 344.634460,836.172180 344.657501,831.665955 
	C344.808105,802.197449 344.763580,772.727417 344.643921,743.258484 
	C344.628113,739.363281 345.571594,737.560852 349.915344,737.606506 
	C367.728210,737.793823 385.544739,737.754089 403.358582,737.620422 
	C406.878937,737.594055 408.202850,738.600647 408.581451,742.313232 
	C409.896271,755.206482 409.955292,755.317322 397.336761,755.312927 
	C388.512573,755.309814 379.686615,755.419678 370.865143,755.266296 
	C367.470306,755.207275 365.987610,756.295898 366.177185,759.847839 
	C366.398773,763.998352 366.359406,768.174438 366.196014,772.330139 
	C366.069427,775.550293 367.317657,776.779175 370.563904,776.725952 
	C378.719696,776.592407 386.882172,776.825806 395.036377,776.651306 
	C398.741241,776.572083 400.479095,777.545227 400.395538,781.661011 
	C400.090973,796.655029 402.072021,793.994568 388.127106,794.257141 
	C382.301910,794.366821 376.470551,794.373596 370.646606,794.233582 
	C367.505371,794.158081 366.062439,795.226379 366.171814,798.542664 
	C366.347351,803.865051 366.375488,809.200439 366.215363,814.522766 
	C366.115234,817.850464 367.564362,818.851990 370.688812,818.825378 
	C381.010437,818.737427 391.338013,819.011414 401.654022,818.761780 
	C406.297729,818.649414 409.119232,819.656921 408.536194,824.939453 
	C408.518555,825.099060 408.591003,825.266785 408.608032,825.432190 
	C409.811371,837.132874 409.811279,837.132874 397.957397,837.229187 
z"/>
<path fill="#000000" opacity="1.000000" stroke="none" 
	d="
M422.667816,821.995483 
	C422.667969,795.677795 422.792725,769.858276 422.559753,744.042114 
	C422.514008,738.969543 424.031799,737.426575 429.075104,737.571533 
	C440.891907,737.911011 452.730103,737.466858 464.550018,737.746521 
	C477.921204,738.062805 488.669769,743.595398 494.179749,756.158569 
	C502.149689,774.330688 495.401978,797.661011 469.796875,803.261963 
	C462.883759,804.774231 455.871094,804.319946 448.894745,804.265381 
	C445.434692,804.238281 444.185852,805.472473 444.270355,808.948486 
	C444.456482,816.606140 444.196167,824.274536 444.376953,831.932434 
	C444.466217,835.713257 443.267029,837.492126 439.246704,837.243164 
	C435.430603,837.006897 431.573822,837.000427 427.760468,837.263245 
	C423.724152,837.541321 422.411987,835.770447 422.641449,831.986938 
	C422.832642,828.833984 422.671997,825.659668 422.667816,821.995483 
M460.794983,785.571167 
	C461.757751,785.316223 462.730865,785.094727 463.681702,784.801147 
	C472.552612,782.061707 476.099487,776.075989 474.620239,766.366394 
	C473.616547,759.778259 467.739655,755.440613 459.565857,755.321716 
	C455.909088,755.268494 452.249268,755.390076 448.593658,755.307129 
	C445.752289,755.242676 444.264404,756.243286 444.302429,759.336914 
	C444.392334,766.650879 444.359100,773.967468 444.278931,781.281982 
	C444.246765,784.217041 445.621735,785.612671 448.453796,785.640320 
	C452.276855,785.677673 456.100616,785.641907 460.794983,785.571167 
M427.100586,822.701782 
	C427.004852,824.354614 427.063599,826.034058 426.783447,827.655029 
	C426.041534,831.947571 427.777527,833.971497 432.100433,833.868591 
	C433.425201,833.837036 434.754059,833.792969 436.075897,833.858337 
	C439.441620,834.024719 440.963501,832.430481 440.870819,829.100403 
	C440.783234,825.954224 440.929779,822.794678 440.698334,819.661316 
	C440.467316,816.533142 441.614716,812.378296 437.235352,811.331177 
	C432.354980,810.164368 430.326019,814.326477 428.156006,817.554749 
	C427.385498,818.700989 427.442413,820.403320 427.100586,822.701782 
M432.880157,751.316101 
	C430.797028,750.884705 428.944092,750.879333 427.844849,753.229614 
	C425.816193,757.567322 428.594635,772.371826 432.151428,775.434998 
	C434.182159,777.183960 436.307922,777.618530 438.167786,775.177917 
	C443.280548,768.468872 440.846497,755.982666 432.880157,751.316101 
z"/>
<path fill="#000000" opacity="1.000000" stroke="none" 
	d="
M748.999817,737.666077 
	C754.992126,737.673157 760.485352,737.742065 765.976501,737.663574 
	C768.937805,737.621277 770.161072,738.916992 770.166321,741.855896 
	C770.195068,758.073303 770.935852,755.151672 757.994812,755.278992 
	C745.289001,755.404053 745.280945,755.306213 745.275574,768.210205 
	C745.266846,789.014832 745.277466,809.819458 745.260681,830.624084 
	C745.255371,837.139465 745.227112,837.145081 738.544800,837.181519 
	C735.382568,837.198730 732.188232,836.905273 729.065063,837.256287 
	C723.827271,837.844910 722.579956,835.514771 722.628296,830.649597 
	C722.831543,810.179993 722.685547,789.707092 722.699585,769.235352 
	C722.709106,755.300537 722.732422,755.381287 708.987244,755.285217 
	C695.982483,755.194336 697.979370,757.053528 697.480591,743.908081 
	C697.282043,738.674500 699.179932,737.474182 704.063110,737.566650 
	C718.870667,737.847046 733.686951,737.667175 748.999817,737.666077 
M741.794556,828.957275 
	C741.820923,822.468872 742.194031,815.961365 741.108459,809.520142 
	C739.219421,798.311890 738.540771,787.094910 740.024536,775.760803 
	C740.649048,770.990540 740.727905,766.143494 740.933289,761.326233 
	C741.012024,759.479248 740.758667,757.557739 738.785217,756.632019 
	C734.059570,754.415527 727.217712,758.458435 727.149170,763.660645 
	C727.084900,768.545471 726.142151,773.678711 730.808411,777.513794 
	C731.841370,778.362793 731.677856,780.610229 732.176880,782.178284 
	C733.184814,785.345398 731.978516,789.161072 734.160828,791.798645 
	C736.064209,794.099182 738.026245,795.844360 734.709167,798.173279 
	C732.507629,799.719055 733.260010,803.871460 729.894470,803.945862 
	C727.390747,804.001282 727.347107,805.373230 727.012878,807.057983 
	C725.671448,813.819458 726.067261,820.660217 726.113708,827.472168 
	C726.130066,829.865845 724.919373,833.050110 728.923279,833.916138 
	C735.169006,835.267212 739.850037,833.823669 741.794556,828.957275 
z"/>
<path fill="#000000" opacity="1.000000" stroke="none" 
	d="
M522.747070,621.281006 
	C532.004761,627.622253 541.610107,628.780640 551.367126,624.039917 
	C561.456787,619.137512 564.427429,609.697083 564.556702,599.450989 
	C564.846558,576.471436 564.648193,553.485962 564.668579,530.502869 
	C564.674561,523.760376 564.705200,523.748474 571.225830,523.734619 
	C575.389343,523.725769 579.555969,523.862183 583.715454,523.738403 
	C586.786926,523.647034 588.307068,524.647522 588.296326,527.990234 
	C588.220703,551.472534 588.764648,574.970093 588.084717,598.433105 
	C587.527527,617.657410 580.430237,634.220886 562.041565,642.980835 
	C528.222595,659.091492 489.849609,638.897400 489.639038,599.467224 
	C489.516327,576.490051 489.245850,553.513672 489.089539,530.536621 
	C489.045166,524.011292 489.335602,523.791931 495.798645,523.756836 
	C497.797119,523.745972 499.797424,523.704895 501.793945,523.769531 
	C513.515503,524.149109 512.433105,521.185608 512.816650,534.881592 
	C513.431885,556.849365 513.153687,578.842041 513.268738,600.824097 
	C513.311157,608.933594 516.387634,615.684143 522.747070,621.281006 
M504.561310,531.218872 
	C504.061584,533.064148 504.342865,534.662292 505.958557,535.917603 
	C508.276093,532.048523 508.269226,532.014832 504.561310,531.218872 
z"/>
<path fill="#000000" opacity="1.000000" stroke="none" 
	d="
M510.894714,204.018402 
	C523.255798,219.094177 535.921387,233.470581 547.236267,248.909103 
	C563.798523,271.507263 564.558533,297.099792 548.713196,318.943176 
	C534.751709,338.189697 514.929260,344.464142 492.265350,339.876465 
	C470.458496,335.462311 457.020172,321.196014 452.095093,299.555725 
	C447.798462,280.676819 453.097229,263.749939 464.047180,248.218231 
	C474.016815,234.077042 483.716156,219.745148 493.697906,205.612625 
	C498.944153,198.184845 504.155548,197.750244 510.894714,204.018402 
M468.262604,279.977997 
	C467.778046,287.159760 467.939728,294.255646 470.372589,301.169769 
	C476.206085,317.748535 492.488098,327.264740 508.917053,323.604736 
	C518.603516,321.446808 523.194885,313.028015 519.388611,303.806854 
	C517.000793,298.022003 512.770752,293.463135 508.150055,289.322906 
	C501.821716,283.652527 495.600433,277.905518 490.409058,271.108551 
	C486.479218,265.963287 484.197021,259.980042 481.436066,253.532837 
	C475.045776,261.566376 470.195679,269.549652 468.262604,279.977997 
M524.626648,282.896210 
	C531.113892,290.206451 536.824890,297.857788 535.986633,308.451965 
	C537.038940,308.290863 537.311768,307.177246 537.846619,306.415283 
	C538.605408,305.334198 539.214966,304.134186 539.781555,302.934570 
	C547.517944,286.554077 543.729309,271.774048 533.144714,258.202209 
	C524.441833,247.043106 515.361511,236.178207 506.434174,225.194534 
	C505.813141,224.430496 505.166626,223.606094 503.985901,223.729843 
	C493.612579,233.850464 493.441528,248.895248 503.288361,261.590637 
	C509.367889,269.428894 517.545715,275.093445 524.626648,282.896210 
M479.024323,235.473679 
	C475.756897,240.251862 473.275330,245.928757 469.055908,249.618195 
	C460.676392,256.945282 457.291046,265.844299 455.890106,276.544830 
	C455.028687,283.124451 455.904266,287.377472 462.478973,289.579193 
	C463.752899,288.411713 464.001953,286.686768 464.176239,285.094025 
	C464.998230,277.582703 467.683380,270.712952 470.392517,263.710693 
	C472.626709,257.936035 478.181946,254.178162 479.083588,247.786896 
	C479.232178,246.733810 480.480927,246.734390 481.587280,246.841888 
	C489.350555,247.596298 492.097565,245.319778 492.736908,237.545425 
	C493.009735,234.227585 492.954651,230.897949 495.172394,228.063477 
	C497.010681,225.714020 496.818695,223.709656 494.300751,221.683746 
	C491.604248,219.514191 489.685577,220.554886 487.878265,222.601593 
	C484.573547,226.344131 481.558044,230.307404 479.024323,235.473679 
M525.035339,303.565613 
	C526.338257,305.838287 526.415222,309.062073 530.439392,310.162354 
	C531.162842,305.401733 531.678345,301.157745 529.019836,297.075836 
	C527.540833,294.805023 525.662537,293.704407 523.202698,295.339050 
	C520.489197,297.142212 522.189392,299.015228 523.433105,300.803101 
	C523.905090,301.481598 524.314819,302.203339 525.035339,303.565613 
z"/>
<path fill="#000000" opacity="1.000000" stroke="none" 
	d="
M468.028992,621.584839 
	C461.367035,638.580505 448.132568,646.150696 431.345245,648.091248 
	C417.772919,649.660156 404.682495,647.579224 393.405212,639.053284 
	C385.377075,632.983704 380.132416,625.225769 379.427124,614.777344 
	C379.237732,611.971497 379.733948,610.678711 382.671814,610.688843 
	C388.002533,610.707275 393.333588,610.619141 398.664520,610.573181 
	C400.253754,610.559448 401.421082,610.919922 402.211334,612.631714 
	C408.645416,626.568176 423.048584,631.374146 437.079468,624.442993 
	C441.015411,622.498657 443.905945,619.723267 445.196899,615.466003 
	C446.645569,610.688416 445.092743,606.205994 440.992310,603.139709 
	C437.583282,600.590454 433.600616,599.414490 429.584778,598.269165 
	C421.427002,595.942627 413.190552,593.835205 405.168274,591.103699 
	C393.713593,587.203430 383.993652,581.025085 380.655182,568.359253 
	C375.559113,549.024902 386.647186,530.217346 406.909241,524.345093 
	C426.345520,518.712280 444.216034,521.415161 459.025269,536.242126 
	C464.781036,542.004761 467.220062,549.431458 467.789917,557.480652 
	C467.964813,559.950806 466.806519,561.257202 464.303925,561.264038 
	C458.806427,561.278992 453.308441,561.236816 447.811493,561.295044 
	C445.468567,561.319824 444.810181,559.789856 444.109436,557.968018 
	C439.046478,544.805054 421.360901,539.434265 409.411346,547.430420 
	C405.455017,550.077820 402.783813,553.555298 403.317200,558.650513 
	C403.859680,563.832642 406.997833,567.057983 411.580048,569.034973 
	C420.633606,572.941101 430.384766,574.598450 439.695679,577.683472 
	C447.327698,580.212219 454.769623,583.123169 460.688782,588.811157 
	C470.200806,597.951721 470.815613,609.211060 468.028992,621.584839 
M411.651123,528.619385 
	C403.402222,528.638672 397.329803,533.409912 391.615204,538.400146 
	C389.112305,540.585754 388.395691,544.104675 390.190582,547.603149 
	C391.247345,549.662842 391.931183,551.915344 392.760895,554.089539 
	C393.376282,555.702148 392.909363,558.132629 395.327118,558.445862 
	C397.885254,558.777222 398.399841,556.456909 399.356903,554.731140 
	C403.956543,546.436890 409.376678,539.287964 420.373657,540.214294 
	C420.551361,540.229248 420.770966,539.746338 420.994507,539.466370 
	C420.742188,537.536682 419.309052,536.588928 417.713928,536.151184 
	C414.013245,535.135498 412.158173,532.852478 411.651123,528.619385 
z"/>
<path fill="#000000" opacity="1.000000" stroke="none" 
	d="
M498.000000,393.852661 
	C543.665894,393.852844 588.831848,393.851837 633.997742,393.854523 
	C636.660217,393.854706 639.330017,393.728027 641.914124,394.633118 
	C646.532104,396.250549 649.211487,400.078339 648.740845,404.467621 
	C648.217896,409.344666 645.479065,412.170624 640.356140,412.864532 
	C638.385376,413.131470 636.366089,413.102783 634.368958,413.103119 
	C547.536987,413.117218 460.705078,413.120087 373.873138,413.117432 
	C372.541779,413.117371 371.189301,413.166504 369.882874,412.961700 
	C364.992310,412.195068 361.717072,408.168762 361.752625,403.102234 
	C361.786255,398.307953 364.495483,394.971191 369.529480,394.232880 
	C372.635559,393.777313 375.840698,393.928070 379.001465,393.925140 
	C418.500977,393.888214 458.000488,393.873047 498.000000,393.852661 
z"/>
<path fill="#000000" opacity="1.000000" stroke="none" 
	d="
M610.000000,373.336456 
	C531.007812,373.333984 452.515594,373.330933 374.023376,373.324005 
	C372.524109,373.323883 371.009460,373.406433 369.528564,373.228790 
	C365.410278,372.734833 362.174286,369.182007 361.855438,364.631378 
	C361.536438,360.078430 363.517761,356.961670 368.049408,355.640442 
	C370.318024,354.979034 372.618073,354.813293 374.964172,354.813232 
	C462.122070,354.810944 549.279968,354.794250 636.437866,354.792480 
	C637.932617,354.792450 639.458252,354.789062 640.916687,355.065491 
	C646.243225,356.075165 649.424744,360.025848 648.944519,364.859833 
	C648.454956,369.787811 644.753174,373.236542 639.497375,373.293457 
	C629.832581,373.398071 620.165894,373.330994 610.000000,373.336456 
z"/>
<path fill="#000000" opacity="1.000000" stroke="none" 
	d="
M624.999146,453.319275 
	C540.698853,453.319519 456.898315,453.321167 373.097778,453.316833 
	C366.685455,453.316498 363.626678,451.416565 362.281708,446.671234 
	C360.585419,440.686310 364.298645,435.885956 370.795746,435.662231 
	C390.767731,434.974365 410.739655,435.390930 430.715118,435.504242 
	C453.175598,435.631683 475.638916,435.137299 498.101044,435.129913 
	C530.058105,435.119446 562.017700,435.582214 593.971008,435.286438 
	C608.794678,435.149261 623.595398,435.808502 638.411316,435.647339 
	C645.400024,435.571320 648.784180,438.603180 648.760010,444.303802 
	C648.736267,449.913208 644.727783,453.287079 637.994507,453.324249 
	C633.829468,453.347229 629.664124,453.322479 624.999146,453.319275 
z"/>
<path fill="#000000" opacity="1.000000" stroke="none" 
	d="
M495.000061,474.715515 
	C503.496246,474.716827 511.493042,474.654999 519.488342,474.738983 
	C525.987488,474.807251 530.285339,478.599976 530.262939,484.031189 
	C530.239746,489.655518 526.177795,493.237762 519.558350,493.241455 
	C470.415405,493.268829 421.272491,493.274048 372.129547,493.248260 
	C365.713593,493.244904 361.823761,489.528961 361.778442,483.642242 
	C361.735596,478.070435 365.459686,474.741577 372.059052,474.736237 
	C412.872711,474.703033 453.686401,474.717041 495.000061,474.715515 
M372.799500,483.718842 
	C372.069672,481.443756 370.763947,479.467560 368.158905,480.534393 
	C365.097473,481.788086 365.965363,484.738953 366.526733,487.070709 
	C367.086884,489.397369 369.179413,490.006500 371.306213,489.564545 
	C374.611603,488.877655 373.568207,486.534088 372.799500,483.718842 
z"/>
<path fill="#000000" opacity="1.000000" stroke="none" 
	d="
M633.424194,611.869934 
	C633.414368,621.662903 633.176697,630.981567 633.483215,640.282288 
	C633.645020,645.191101 631.811890,646.851868 627.117004,646.367065 
	C624.317383,646.078003 621.463318,646.328430 618.633850,646.311462 
	C610.819824,646.264709 610.809753,646.259583 610.808411,638.662842 
	C610.802246,604.874695 610.802246,571.086487 610.800232,537.298340 
	C610.800110,534.468811 610.881531,531.636414 610.780945,528.810486 
	C610.655762,525.295776 612.021790,523.588257 615.759033,523.737915 
	C620.411804,523.924194 625.078430,523.831360 629.737671,523.762756 
	C632.718445,523.718872 633.778931,525.018372 633.759949,528.017761 
	C633.584229,555.807495 633.519470,583.597961 633.424194,611.869934 
M628.049561,606.028076 
	C625.157349,601.857117 621.847351,601.978149 619.398560,605.910645 
	C615.399414,612.332520 615.014038,619.203369 615.696045,626.438782 
	C616.158081,631.340576 618.957092,634.034241 622.980408,636.254028 
	C626.937378,638.437256 628.558228,637.062988 628.675781,633.082031 
	C628.934937,624.313110 629.374023,615.532959 628.049561,606.028076 
M619.058533,562.085205 
	C626.626343,562.026062 628.722351,560.207581 628.924194,553.282837 
	C629.064392,548.470947 629.140564,543.651978 629.043945,538.840210 
	C628.985901,535.947266 629.537048,532.908325 628.016663,530.179138 
	C625.464844,530.037415 623.818237,531.731445 621.767700,532.282410 
	C616.914307,533.586243 614.765137,536.816040 615.016418,541.883789 
	C615.270996,547.016907 614.949768,552.176575 615.912781,557.274292 
	C616.254944,559.085449 616.366272,560.955750 619.058533,562.085205 
z"/>
</svg>