<svg version="1.1" id="Layer_1" xmlns="http://www.w3.org/2000/svg" xmlns:xlink="http://www.w3.org/1999/xlink" x="0px" y="0px"
	 width="100%" viewBox="0 0 1024 1024" enable-background="new 0 0 1024 1024" xml:space="preserve">
<path fill="#000000" opacity="1.000000" stroke="none" 
	d="
M732.949158,437.999481 
	C732.948730,369.705383 732.948730,301.911133 732.948730,234.268860 
	C730.809326,232.870010 728.751526,233.386475 726.810669,233.381058 
	C708.644348,233.330231 690.477783,233.350616 672.311340,233.336761 
	C645.281250,233.316132 620.290955,212.381134 615.876892,185.920273 
	C615.388855,182.994705 615.658936,179.934982 615.656433,176.937408 
	C615.641174,158.937592 615.653503,140.937790 615.647034,122.937973 
	C615.644531,116.121109 615.632935,116.092232 608.726013,116.091568 
	C527.226929,116.083717 445.727905,116.090843 364.228851,116.081322 
	C332.729340,116.077637 301.224976,116.358414 269.732635,115.871880 
	C256.266937,115.663834 249.099838,123.593460 249.120010,136.157944 
	C249.389542,303.989105 249.325317,471.820801 249.357330,639.652344 
	C249.359543,651.289612 256.730591,658.643433 268.297241,658.644714 
	C323.296661,658.650818 378.296234,658.699097 433.295288,658.556824 
	C437.739075,658.545288 440.201660,659.592224 441.772980,664.058655 
	C443.722778,669.601074 447.485748,674.170715 452.115906,677.923889 
	C452.958191,678.606689 454.193939,679.095398 454.090393,680.606995 
	C452.684113,681.896973 450.947845,681.306641 449.375610,681.307434 
	C388.876251,681.337830 328.376862,681.336548 267.877502,681.331543 
	C244.545593,681.329590 226.663101,663.558594 226.661026,640.251526 
	C226.645935,470.753326 226.649628,301.255096 226.666306,131.756897 
	C226.668396,110.559830 243.576340,93.660690 264.757782,93.658630 
	C382.256561,93.647163 499.755371,93.658386 617.254150,93.656631 
	C627.369385,93.656479 636.156433,96.889069 643.381165,104.127327 
	C677.518677,138.328812 711.726624,172.460312 745.771973,206.753204 
	C751.974731,213.001083 755.238403,221.068848 755.253296,229.794662 
	C755.401367,316.460175 755.344849,403.126038 755.333313,489.791809 
	C755.333191,490.768097 755.163513,491.744415 755.070923,492.742462 
	C752.839050,492.969025 752.572083,491.185944 751.890259,490.017822 
	C747.189026,481.963379 742.782349,473.725586 737.805481,465.847107 
	C734.096680,459.976074 732.131104,453.948456 732.893982,446.991760 
	C733.200928,444.192596 732.947815,441.331970 732.949158,437.999481 
M707.425903,210.650146 
	C710.527649,210.650146 713.629395,210.650146 716.033813,210.650146 
	C690.294495,184.645187 664.541443,158.626389 638.760254,132.579132 
	C637.815674,133.791534 638.387512,135.512283 638.380676,137.089767 
	C638.325317,149.916946 638.331604,162.744522 638.351990,175.571915 
	C638.383667,195.474274 653.557922,210.625626 673.461731,210.646011 
	C684.456665,210.657272 695.451599,210.650436 707.425903,210.650146 
z"/>
<path fill="#000000" opacity="1.000000" stroke="none" 
	d="
M518.262939,516.311035 
	C538.269775,481.471191 558.079773,446.941284 577.912842,412.424591 
	C582.059998,405.206940 585.892700,397.767273 590.553650,390.893311 
	C610.610718,361.313293 648.908508,362.213135 667.107239,392.968079 
	C691.367065,433.966064 715.067566,475.294922 739.015808,516.477356 
	C756.180420,545.994263 773.399597,575.479614 790.514465,605.025269 
	C803.018066,626.610474 800.481079,647.211243 783.318665,663.588867 
	C775.392334,671.152771 765.657227,675.230286 754.862549,675.253235 
	C671.034912,675.431396 587.206421,675.457886 503.378784,675.270569 
	C478.429016,675.214844 458.202576,654.562866 458.734467,630.235596 
	C458.923401,621.595154 462.150665,613.670898 466.427887,606.235657 
	C483.619049,576.351624 500.855042,546.493408 518.262939,516.311035 
M770.177429,644.652527 
	C772.219299,642.188110 773.647644,639.422363 774.644653,636.365967 
	C777.583191,627.358398 773.104126,620.145142 768.946838,612.953735 
	C745.782227,572.882507 722.528870,532.862610 699.304565,492.825928 
	C682.178589,463.302124 665.179504,433.703613 647.873047,404.285919 
	C638.160767,387.777100 618.854919,387.850403 609.372864,404.257080 
	C567.965515,475.903442 526.808167,547.695251 485.120392,619.177856 
	C474.806244,636.863647 489.559509,653.054626 504.883545,652.941895 
	C586.516846,652.341370 668.156921,652.615662 749.794434,652.731201 
	C757.570190,652.742188 764.182129,650.661682 770.177429,644.652527 
z"/>
<path fill="#000000" opacity="1.000000" stroke="none" 
	d="
M429.896698,220.642334 
	C425.585571,236.060440 421.266083,251.059174 417.342224,266.160706 
	C416.008820,271.292511 413.779266,273.639771 408.098114,273.464050 
	C389.913208,272.901611 394.276184,275.675964 389.364990,259.234589 
	C384.380554,242.547897 379.748566,225.755951 374.617188,207.802780 
	C370.975128,220.580414 367.639069,232.264481 364.315308,243.952087 
	C361.999725,252.094711 359.563568,260.206848 357.459198,268.403961 
	C356.553070,271.933380 354.677368,273.442169 351.135010,273.357361 
	C347.139709,273.261749 343.134186,273.195251 339.144714,273.374664 
	C335.459534,273.540375 333.681976,271.690399 332.764374,268.398041 
	C323.805206,236.252563 314.800323,204.119797 305.854340,171.970657 
	C304.410309,166.781097 305.279449,165.735397 310.727936,165.673416 
	C314.891510,165.626038 319.067566,165.857193 323.217072,165.611069 
	C327.616577,165.350128 329.914001,167.010513 330.933838,171.438126 
	C335.663544,191.972351 340.615723,212.455383 345.503784,232.953018 
	C345.609528,233.396500 345.901917,233.795471 346.441650,234.898773 
	C351.286255,217.715485 355.953003,201.153488 360.626282,184.593338 
	C361.933990,179.959351 363.360382,175.355789 364.534393,170.688477 
	C365.070404,168.557632 366.004822,166.828720 368.125061,166.327057 
	C372.370361,165.322617 376.699493,165.341766 380.955139,166.309280 
	C383.401642,166.865463 383.971497,168.926270 384.599396,171.148331 
	C390.555908,192.227478 396.637238,213.271378 403.133606,235.895935 
	C405.530731,225.751312 407.561249,217.025620 409.658112,208.315903 
	C412.648743,195.893906 415.775940,183.503952 418.654083,171.056213 
	C419.543427,167.209900 421.266602,165.319077 425.464111,165.597046 
	C430.107849,165.904556 434.787140,165.693710 439.450836,165.675461 
	C443.431885,165.659882 444.779419,167.206436 443.611664,171.306686 
	C438.973389,187.592651 434.547668,203.939148 429.896698,220.642334 
z"/>
<path fill="#000000" opacity="1.000000" stroke="none" 
	d="
M548.000000,319.689392 
	C584.317444,319.690369 620.134888,319.666748 655.952332,319.708374 
	C666.017334,319.720062 671.938049,327.522705 668.201172,335.686951 
	C666.382874,339.659393 663.198242,341.825256 658.900146,342.284943 
	C657.251526,342.461243 655.571472,342.357452 653.905701,342.357513 
	C543.288147,342.361755 432.670563,342.365295 322.052979,342.352631 
	C319.904602,342.352386 317.738770,342.580322 315.627228,341.795746 
	C311.027008,340.086517 307.593292,335.134918 307.964081,330.603241 
	C308.413544,325.109741 312.613434,320.575104 318.108154,319.797302 
	C319.580933,319.588837 321.101349,319.693146 322.599884,319.693054 
	C397.566589,319.689209 472.533295,319.689606 548.000000,319.689392 
z"/>
<path fill="#000000" opacity="1.000000" stroke="none" 
	d="
M363.000000,391.917023 
	C416.157898,391.908356 468.815796,391.893799 521.473694,391.910431 
	C523.793335,391.911194 526.156982,391.965393 528.424011,392.395508 
	C534.623840,393.571808 538.542175,398.656067 537.987061,404.491577 
	C537.412231,410.534607 533.014465,414.341553 526.341064,414.346985 
	C483.848145,414.381683 441.355225,414.380280 398.862305,414.386383 
	C372.866638,414.390137 346.870941,414.392639 320.875275,414.381561 
	C312.944275,414.378174 307.732330,409.957031 307.751984,403.307587 
	C307.771149,396.825500 313.234955,391.964905 321.007172,391.907928 
	C334.837341,391.806610 348.668976,391.903168 363.000000,391.917023 
z"/>
<path fill="#000000" opacity="1.000000" stroke="none" 
	d="
M496.916199,252.270584 
	C510.749817,237.783585 524.403137,223.655075 537.208801,208.738312 
	C540.784973,204.572617 542.417603,199.889847 541.529297,194.442688 
	C540.533447,188.336227 536.660767,184.647537 530.977844,184.260925 
	C523.828552,183.774536 519.186401,186.335464 517.770569,192.848816 
	C516.729126,197.639786 514.238281,198.642563 510.049011,198.400421 
	C506.562653,198.198868 503.054382,198.413559 499.558319,198.333176 
	C494.910950,198.226318 493.613098,196.675110 494.237762,192.183884 
	C496.441589,176.338455 508.426239,165.469818 524.818787,164.742218 
	C529.441467,164.537033 534.054626,164.655426 538.727478,165.439316 
	C564.395020,169.745148 569.917786,196.893814 559.810852,213.727646 
	C556.970703,218.458084 553.385010,222.607208 549.542664,226.574265 
	C541.573669,234.801880 533.738403,243.158997 525.823547,251.488815 
	C527.431580,253.547791 529.410828,252.763962 531.082458,252.778564 
	C540.575684,252.861450 550.070312,252.758591 559.563965,252.811539 
	C565.308289,252.843567 566.372803,253.861588 566.322021,259.461823 
	C566.175842,275.592560 568.448486,273.211761 552.717224,273.321533 
	C535.395569,273.442413 518.070496,273.207336 500.751343,273.449127 
	C495.820312,273.518005 493.866943,271.537323 494.497375,267.002350 
	C495.167328,262.183441 492.947632,256.913391 496.916199,252.270584 
z"/>
<path fill="#000000" opacity="1.000000" stroke="none" 
	d="
M309.206604,813.297241 
	C304.213776,813.824097 302.755768,810.969177 301.707214,807.251709 
	C297.880463,793.684265 293.905548,780.158691 288.819672,766.549255 
	C286.669495,773.910889 284.517090,781.271851 282.369873,788.634338 
	C280.416229,795.333069 278.369843,802.006958 276.559845,808.744324 
	C275.670380,812.055237 273.682770,813.426697 270.414307,813.307129 
	C270.081787,813.294983 269.748138,813.311218 269.415039,813.317932 
	C258.637024,813.536560 258.646759,813.533813 255.787872,803.293030 
	C250.027954,782.660461 244.261429,762.029724 238.486526,741.401367 
	C236.662598,734.886169 237.478973,733.794861 244.291641,733.763245 
	C255.427902,733.711548 255.489746,733.696960 258.038544,744.529663 
	C261.151398,757.759949 264.147156,771.017822 268.077118,784.306274 
	C271.240387,773.214661 274.403961,762.123108 277.566681,751.031372 
	C278.386780,748.155273 279.184631,745.272766 280.026428,742.403015 
	C282.214020,734.945435 286.692932,732.622742 294.431000,734.771118 
	C296.650238,735.387329 296.927643,737.134583 297.435364,738.899536 
	C301.384064,752.625061 305.358398,766.343323 309.339325,780.059631 
	C309.659515,781.162842 310.087860,782.234680 310.924622,784.639160 
	C313.687439,773.106323 316.165558,762.786499 318.629944,752.463379 
	C319.708252,747.946350 320.823517,743.436646 321.800995,738.897583 
	C322.591034,735.229187 324.643250,733.654358 328.473419,733.705811 
	C341.743256,733.884216 342.714111,732.331726 338.504974,746.429688 
	C332.804749,765.521851 327.558563,784.750183 322.184113,803.938721 
	C319.578674,813.240906 319.647247,813.260132 309.206604,813.297241 
z"/>
<path fill="#000000" opacity="1.000000" stroke="none" 
	d="
M441.000000,487.016418 
	C402.365112,487.017548 364.230194,487.024750 326.095306,486.997375 
	C323.438385,486.995483 320.757721,486.915436 318.129608,486.562469 
	C311.803925,485.713043 307.707581,480.838348 308.203247,474.998657 
	C308.746857,468.593353 312.797943,464.685852 319.345612,464.680481 
	C371.135681,464.637970 422.925812,464.639435 474.715912,464.677734 
	C480.809662,464.682220 484.759521,468.194855 485.319550,473.706055 
	C486.008911,480.490082 483.059845,485.051025 476.910767,486.382721 
	C474.817780,486.835968 472.624664,486.981354 470.475616,486.994720 
	C460.817413,487.054810 451.158600,487.016785 441.000000,487.016418 
z"/>
<path fill="#000000" opacity="1.000000" stroke="none" 
	d="
M565.669373,908.989441 
	C565.668823,889.999573 565.657471,871.507263 565.674255,853.015015 
	C565.680420,846.273743 566.205261,846.262390 572.638977,845.615601 
	C579.604065,844.915222 583.592224,847.664978 586.985657,853.606140 
	C594.150513,866.150146 602.015076,878.294556 610.704651,890.438049 
	C610.704651,887.410767 610.704712,884.383484 610.704529,881.356201 
	C610.704102,872.026794 610.666992,862.697205 610.715393,853.368042 
	C610.749878,846.720093 611.717834,845.777100 618.139587,845.716003 
	C627.653992,845.625610 628.184265,846.149475 628.178345,855.908203 
	C628.166138,875.899658 628.170288,895.891174 628.081299,915.882385 
	C628.067139,919.065857 628.965942,922.925842 624.515930,924.185852 
	C618.778381,925.810364 612.312317,924.236206 610.044983,920.687744 
	C601.355530,907.088867 592.720886,893.455078 583.298462,878.626709 
	C583.298462,884.734497 583.295227,889.582825 583.299194,894.431213 
	C583.305786,902.427856 583.201843,910.427002 583.373718,918.420105 
	C583.462585,922.549194 582.161499,924.437805 577.661865,924.446350 
	C565.660583,924.469116 565.660889,924.632202 565.668457,912.486084 
	C565.669128,911.486389 565.669250,910.486755 565.669373,908.989441 
z"/>
<path fill="#000000" opacity="1.000000" stroke="none" 
	d="
M554.701355,794.172607 
	C553.650574,792.047852 552.599792,790.325073 551.878235,788.474060 
	C550.053040,783.791748 546.082947,785.361633 542.868225,785.524658 
	C539.254700,785.707886 540.440247,788.915344 540.382568,791.001587 
	C540.230957,796.493591 540.160400,801.998169 540.366150,807.486145 
	C540.513123,811.405518 538.733154,812.749695 535.067139,812.982178 
	C523.559143,813.711975 522.842468,813.116028 522.840332,801.517517 
	C522.836792,781.698730 522.816895,761.879883 522.848450,742.061157 
	C522.860168,734.732483 523.613403,733.871338 530.792908,734.005188 
	C539.771118,734.172546 548.761292,733.388184 557.730774,734.517395 
	C569.079041,735.945984 576.472473,741.490723 578.980652,751.205566 
	C581.786316,762.072266 579.501038,771.602173 570.732239,779.142334 
	C569.748108,779.988586 568.325745,780.384949 567.791809,782.181763 
	C572.034302,790.344849 576.442017,798.722717 580.746765,807.153137 
	C582.821411,811.216125 582.125610,812.502258 577.583618,812.847107 
	C574.436890,813.085938 571.258972,812.887085 568.096191,812.946838 
	C565.058105,813.004272 563.141968,811.545227 561.869934,808.851562 
	C559.598145,804.041077 557.197815,799.291382 554.701355,794.172607 
M556.615662,750.640015 
	C551.452820,748.941650 546.223145,749.154846 540.834656,749.832703 
	C539.932800,753.482422 540.343933,756.971313 540.380005,760.410706 
	C540.501831,772.024780 538.545654,770.568787 550.711121,770.625732 
	C556.765625,770.654053 560.118896,768.355042 561.787415,763.353699 
	C563.515503,758.173889 562.312561,754.844849 556.615662,750.640015 
z"/>
<path fill="#000000" opacity="1.000000" stroke="none" 
	d="
M642.497192,795.588318 
	C644.550903,799.628479 646.526245,803.294128 648.289368,807.059143 
	C650.208313,811.156738 649.390320,812.506897 645.019897,812.938904 
	C644.854553,812.955261 644.686890,812.946960 644.520874,812.958313 
	C631.961792,813.815063 631.951233,813.820435 626.267700,802.520508 
	C623.951538,797.915649 621.481445,793.371704 619.469360,788.635254 
	C617.649780,784.351990 614.169983,785.282410 610.992310,785.474670 
	C607.311157,785.697266 608.427979,788.772156 608.378540,790.867798 
	C608.245056,796.526001 608.221680,802.191833 608.360352,807.849609 
	C608.449768,811.495911 606.779419,812.953735 603.286926,813.023315 
	C588.158447,813.324341 590.734070,813.079590 590.683655,801.482849 
	C590.595459,781.169312 590.775024,760.853882 590.571899,740.541931 
	C590.525574,735.912170 592.065552,734.398499 596.625610,734.557678 
	C604.940491,734.847717 613.272949,734.605225 621.597595,734.656860 
	C633.286072,734.729309 642.830872,740.425964 646.207397,749.262573 
	C650.359009,760.127441 647.418884,772.545959 638.554932,780.082397 
	C636.264099,782.030090 636.029053,783.581177 637.421448,785.991028 
	C639.168457,789.014954 640.700439,792.163086 642.497192,795.588318 
M620.819031,770.621948 
	C627.348511,769.029541 629.967102,765.806519 629.819824,759.543884 
	C629.682434,753.703308 627.579163,751.535828 620.550720,749.992065 
	C609.586731,747.583984 608.349426,748.517273 608.348206,759.196289 
	C608.346863,770.685974 608.346924,770.685974 620.819031,770.621948 
z"/>
<path fill="#000000" opacity="1.000000" stroke="none" 
	d="
M790.129517,799.942871 
	C791.594910,802.791321 792.863525,805.323120 794.200806,807.818176 
	C795.674194,810.567200 795.063171,812.482300 791.846863,812.684326 
	C787.701843,812.944641 783.527161,812.909180 779.372498,812.775208 
	C776.664307,812.687805 775.515076,810.550659 774.458130,808.371338 
	C771.261169,801.779175 767.750610,795.326904 764.833801,788.615173 
	C762.819702,783.980835 759.125854,785.333801 755.901917,785.503540 
	C752.284424,785.693970 753.448120,788.870972 753.395813,790.969360 
	C753.258972,796.463989 753.173523,801.970947 753.394775,807.459717 
	C753.553833,811.405151 751.749146,812.934082 748.091858,812.917908 
	C747.925293,812.917175 747.758606,812.923096 747.592224,812.931946 
	C737.030029,813.494019 736.658752,813.141052 736.658997,802.564209 
	C736.659546,781.905396 736.790222,761.245056 736.562317,740.588745 
	C736.508301,735.691040 738.102234,734.106689 742.904907,734.475281 
	C751.366028,735.124695 759.849487,734.117798 768.350769,734.564697 
	C779.542847,735.153015 788.501648,740.600769 791.606445,749.486694 
	C795.682312,761.152039 792.987244,772.653198 784.111328,779.784729 
	C781.674500,781.742615 781.122437,783.193909 782.721375,785.928650 
	C785.323425,790.379089 787.567749,795.038635 790.129517,799.942871 
M771.562988,751.791138 
	C769.602417,750.340515 767.223389,750.210205 764.963501,749.795959 
	C754.134399,747.810791 753.352051,748.473083 753.350037,759.289185 
	C753.349976,759.786743 753.343506,760.284424 753.350769,760.781860 
	C753.513977,771.997925 751.761169,770.467041 763.558105,770.680847 
	C768.269470,770.766235 772.076233,769.425232 774.256287,765.004456 
	C776.577698,760.297058 775.807983,756.023560 771.562988,751.791138 
z"/>
<path fill="#000000" opacity="1.000000" stroke="none" 
	d="
M656.692993,767.316284 
	C658.434143,755.755249 661.673462,745.452271 671.547363,738.643616 
	C687.203369,727.847839 717.524231,730.516785 723.960449,758.738647 
	C726.347107,769.203674 726.357727,779.829407 723.408691,790.266174 
	C718.752258,806.745544 705.890442,815.407349 687.910461,814.330933 
	C672.418884,813.403564 660.558289,802.410950 657.627136,786.652588 
	C656.457275,780.363831 656.746765,774.081970 656.692993,767.316284 
M675.318115,782.280579 
	C675.766113,787.064209 677.379944,791.341614 680.830078,794.795593 
	C687.163086,801.136169 699.192139,799.952881 703.276550,792.000549 
	C709.391724,780.094666 709.599121,767.687012 703.713318,755.562073 
	C701.387085,750.770142 697.149475,748.229797 691.545837,748.322449 
	C685.777039,748.417725 681.070801,750.378052 678.418213,755.738525 
	C674.380005,763.899048 673.309753,772.491882 675.318115,782.280579 
z"/>
<path fill="#000000" opacity="1.000000" stroke="none" 
	d="
M703.288269,893.790771 
	C702.654114,897.848022 702.292664,901.509460 701.356323,905.017517 
	C698.053406,917.391174 688.311218,924.962585 675.553528,925.329102 
	C653.416504,925.965088 641.513672,914.960205 639.502808,892.489929 
	C638.706909,883.596558 639.146790,874.901978 641.724304,866.395081 
	C648.224426,844.942139 677.770203,836.864929 694.426208,851.919983 
	C698.815308,855.887207 700.830688,861.144958 702.200562,866.701538 
	C702.475586,867.817139 702.357971,869.036865 701.574768,870.034668 
	C699.127625,873.152100 686.135925,871.556030 684.848511,867.839844 
	C683.008362,862.528442 679.645508,859.594910 673.894653,859.313477 
	C667.553711,859.003052 662.567444,861.290771 660.204163,867.197876 
	C655.575989,878.766174 655.688782,890.630859 660.069275,902.216003 
	C662.338623,908.217834 668.366638,911.227112 674.569275,910.613220 
	C679.985352,910.077209 684.255249,906.158081 686.131165,900.276550 
	C687.212830,896.885193 686.489685,895.110168 682.612976,895.335876 
	C680.955261,895.432373 679.284668,895.323914 677.620361,895.287231 
	C675.202087,895.234009 673.875061,893.880737 673.775879,891.572266 
	C673.393860,882.680176 672.858887,880.363708 682.774475,880.752319 
	C687.096497,880.921753 691.431091,880.756531 695.759766,880.779602 
	C702.256531,880.814209 703.194641,881.759277 703.305969,888.329773 
	C703.334167,889.994202 703.301819,891.659729 703.288269,893.790771 
z"/>
<path fill="#000000" opacity="1.000000" stroke="none" 
	d="
M410.673981,913.025757 
	C408.931519,908.937500 405.522186,904.567017 408.856323,901.199463 
	C412.252502,897.769287 417.721741,899.845459 422.284363,900.058105 
	C424.052948,900.140503 424.760590,901.877197 425.447205,903.521362 
	C428.217682,910.155518 435.098785,913.138733 441.826111,910.924011 
	C445.473541,909.723267 448.132782,907.441772 448.470551,903.627075 
	C448.827362,899.597717 446.675812,896.522766 442.860260,895.083801 
	C436.799469,892.797913 430.645264,890.759705 424.530762,888.616150 
	C415.915466,885.595825 410.827209,879.673279 409.232269,870.598877 
	C407.790161,862.393982 411.482849,853.163452 418.733826,849.138489 
	C429.993927,842.887939 441.720947,842.903442 453.235626,848.255615 
	C459.643311,851.233887 463.155945,856.874939 464.519501,863.848633 
	C465.108582,866.861267 464.108246,868.338867 461.020966,868.337769 
	C457.855316,868.336609 454.689362,868.305359 451.524109,868.339294 
	C449.446930,868.361511 448.371185,867.438538 447.402008,865.503052 
	C444.419556,859.546631 437.807190,857.304138 431.756226,859.942993 
	C429.350494,860.992126 427.599762,862.628723 427.368164,865.504211 
	C427.117188,868.620300 428.229584,871.065796 430.763641,872.815613 
	C433.691437,874.837341 437.147430,875.572815 440.470001,876.636902 
	C444.580414,877.953369 448.805420,879.038635 452.727539,880.790833 
	C461.982941,884.925659 466.737274,892.835144 466.325348,902.633057 
	C465.904419,912.645508 460.369629,920.369263 450.522949,923.444641 
	C436.528046,927.815735 418.958618,926.099548 410.673981,913.025757 
z"/>
<path fill="#000000" opacity="1.000000" stroke="none" 
	d="
M497.987152,797.652954 
	C499.982941,797.652405 501.481384,797.651367 502.979828,797.652527 
	C512.146729,797.659668 514.521912,800.846741 512.249329,809.840088 
	C511.674957,812.113098 510.074768,812.788513 508.205780,812.802979 
	C494.223358,812.911133 480.240021,812.957764 466.257202,812.923096 
	C462.648407,812.914124 462.051941,810.222778 462.038330,807.357910 
	C462.000366,799.366516 462.018280,791.374756 462.016083,783.383179 
	C462.012207,769.231262 462.120911,755.078003 461.943298,740.928284 
	C461.885193,736.299255 463.343994,734.425598 468.257751,734.536926 
	C481.071198,734.827332 493.898956,734.825134 506.713531,734.567749 
	C512.305054,734.455383 512.394287,737.762268 512.334839,741.692993 
	C512.275818,745.599182 512.765869,749.610107 506.753235,749.435608 
	C499.100983,749.213440 491.435791,749.471741 483.779633,749.332886 
	C480.640839,749.276001 479.242493,750.259399 479.311340,753.605591 
	C479.612762,768.260071 477.466187,765.334045 490.927887,765.654785 
	C494.588593,765.742065 498.253418,765.641785 501.916077,765.666565 
	C508.336670,765.709961 509.278107,766.706055 509.280487,773.354187 
	C509.282990,780.331238 508.381927,781.297852 501.678162,781.334534 
	C495.684570,781.367371 489.687531,781.467407 483.698181,781.306885 
	C480.469513,781.220337 479.244690,782.402893 479.312317,785.662964 
	C479.614105,800.209717 477.454010,797.324524 490.996490,797.650269 
	C493.159698,797.702332 495.325317,797.654968 497.987152,797.652954 
z"/>
<path fill="#000000" opacity="1.000000" stroke="none" 
	d="
M395.325928,755.540649 
	C393.141754,758.214233 382.304047,759.459900 380.021759,757.654785 
	C378.512939,756.461426 378.669708,754.717834 378.675140,753.058472 
	C378.699860,745.510437 385.002106,737.693787 393.438568,734.770264 
	C400.403290,732.356750 407.461761,732.404846 414.518127,734.232605 
	C431.638306,738.667480 435.131409,759.789062 425.012543,771.811707 
	C418.911499,779.060608 412.293335,785.873291 405.953247,792.923096 
	C404.881470,794.114929 403.276306,794.959900 402.958313,797.658203 
	C410.292419,797.658203 417.522552,797.568665 424.748322,797.707275 
	C427.244537,797.755127 430.859406,796.447083 431.796600,799.701294 
	C432.923889,803.615662 433.046112,807.936829 431.519073,811.932129 
	C431.003204,813.281738 429.340088,813.298645 427.989685,813.299377 
	C413.341919,813.306946 398.694061,813.271545 384.046509,813.325562 
	C380.933594,813.337036 379.454468,811.837402 379.157867,808.900513 
	C378.586456,803.242859 379.392151,798.378540 383.874878,793.934692 
	C392.492493,785.392029 400.481964,776.214172 408.688538,767.260010 
	C409.803772,766.043213 410.803467,764.674561 411.626617,763.243835 
	C415.054108,757.286865 413.570251,750.692261 408.317139,748.157715 
	C402.964722,745.575317 398.138275,748.187073 395.325928,755.540649 
z"/>
<path fill="#000000" opacity="1.000000" stroke="none" 
	d="
M490.913055,909.974731 
	C490.919037,895.330566 490.792908,881.179993 491.009460,867.034668 
	C491.074982,862.755615 489.864136,860.867798 485.368256,861.280212 
	C482.068390,861.582947 478.715302,861.263611 475.387299,861.313110 
	C472.006439,861.363342 470.769623,859.721619 470.620361,856.411316 
	C470.143494,845.834900 470.163055,845.714355 480.603485,845.711548 
	C494.419189,845.707764 508.236450,845.835815 522.049744,845.655579 
	C526.741516,845.594421 528.996643,847.182678 528.353088,852.036377 
	C528.288025,852.526978 528.346436,853.033936 528.346985,853.533264 
	C528.355591,861.319824 528.355652,861.319763 520.710876,861.347046 
	C508.350433,861.391052 508.354401,861.391113 508.348175,873.641296 
	C508.340576,888.622192 508.229614,903.603943 508.373779,918.583374 
	C508.415405,922.905273 506.793274,924.411926 502.494293,924.422729 
	C490.871094,924.451904 490.871460,924.598816 490.905060,912.967163 
	C490.907471,912.134888 490.910004,911.302612 490.913055,909.974731 
z"/>
<path fill="#000000" opacity="1.000000" stroke="none" 
	d="
M340.338379,900.865479 
	C340.370850,908.654602 340.370850,908.654236 347.685089,908.660095 
	C353.677734,908.664917 359.672302,908.764038 365.662231,908.639709 
	C369.082794,908.568665 370.294434,909.989258 370.401642,913.388733 
	C370.747742,924.361938 370.853607,924.358032 359.754700,924.353271 
	C349.267548,924.348694 338.778961,924.244385 328.293976,924.392639 
	C324.276642,924.449402 322.602051,922.998657 322.621124,918.866333 
	C322.725739,896.227905 322.710327,873.588623 322.627350,850.949951 
	C322.614136,847.350464 324.046906,845.915039 327.614288,845.741333 
	C340.179626,845.129639 340.335785,845.204041 340.340179,857.939636 
	C340.345062,872.088989 340.340302,886.238342 340.338379,900.865479 
z"/>
<path fill="#000000" opacity="1.000000" stroke="none" 
	d="
M379.649170,888.999878 
	C379.651337,876.348938 379.797180,864.195435 379.580475,852.048401 
	C379.501770,847.636963 380.783875,845.764954 385.476959,845.724976 
	C397.346588,845.623962 397.347870,845.446594 397.348175,857.330627 
	C397.348694,877.471191 397.361206,897.611816 397.334198,917.752380 
	C397.325836,923.968262 396.956879,924.349609 390.873535,924.336182 
	C378.938873,924.309875 379.635864,925.497864 379.645264,913.468933 
	C379.651489,905.479248 379.648315,897.489624 379.649170,888.999878 
z"/>
<path fill="#000000" opacity="1.000000" stroke="none" 
	d="
M545.017578,845.711060 
	C553.208191,845.802612 553.345215,845.925964 553.347107,853.555176 
	C553.352356,874.865784 553.358154,896.176453 553.335815,917.487061 
	C553.328918,924.060425 553.043640,924.310608 546.643921,924.352295 
	C535.958679,924.421875 535.957947,924.421875 535.945129,913.542908 
	C535.921936,893.897217 535.885681,874.251526 535.883667,854.605835 
	C535.882812,846.313721 536.449036,845.767029 545.017578,845.711060 
z"/>
<path fill="#000000" opacity="1.000000" stroke="none" 
	d="
M466.996521,242.350998 
	C461.340454,242.343201 456.180603,242.231369 451.026978,242.363770 
	C447.594604,242.451935 445.708130,241.014526 445.222626,237.632568 
	C444.580444,233.159042 444.777832,228.669952 445.012695,224.190369 
	C445.135742,221.842834 446.503632,220.669479 448.953979,220.676910 
	C459.434509,220.708725 469.915314,220.701141 480.395874,220.664337 
	C483.105896,220.654816 484.351044,221.910187 484.329559,224.599396 
	C484.293640,229.090714 484.293976,233.582672 484.323547,238.074051 
	C484.343048,241.034561 482.741150,242.285339 479.972198,242.310760 
	C475.813477,242.348953 471.654358,242.339813 466.996521,242.350998 
z"/>
<path fill="#000000" opacity="1.000000" stroke="none" 
	d="
M351.179016,789.969604 
	C342.058838,789.805908 339.212799,785.645874 341.793152,777.095032 
	C342.326263,775.328430 343.471924,774.716858 345.103241,774.712219 
	C352.926971,774.689880 360.750763,774.697266 368.574554,774.696289 
	C371.002380,774.696045 372.295197,775.860596 372.302826,778.341614 
	C372.304382,778.840820 372.325348,779.340027 372.341797,779.839111 
	C372.667755,789.725647 372.411163,789.988647 362.641693,789.959106 
	C358.979279,789.947998 355.316803,789.964905 351.179016,789.969604 
z"/>
<path fill="#000000" opacity="1.000000" stroke="none" 
	d="
M645.343262,549.942078 
	C645.738037,554.795837 644.800720,559.069214 644.148682,563.313965 
	C642.977783,570.935608 636.790222,576.118896 629.299988,576.322693 
	C621.469971,576.535645 615.651917,572.113892 613.776978,564.327881 
	C613.197632,561.921875 612.826843,559.423157 612.723083,556.951660 
	C611.537842,528.720642 610.351440,500.489227 609.333069,472.251923 
	C609.032776,463.927032 609.878052,455.759674 617.755371,450.577911 
	C630.346313,442.295532 646.743347,451.023682 647.223206,466.654907 
	C647.917603,489.275757 646.966858,511.887695 645.531616,534.475830 
	C645.215454,539.452087 645.393250,544.459778 645.343262,549.942078 
z"/>
<path fill="#000000" opacity="1.000000" stroke="none" 
	d="
M646.908325,611.184448 
	C646.635559,617.052002 645.157898,622.022827 640.926758,625.839844 
	C634.746460,631.415222 625.652100,632.130676 618.836670,627.553955 
	C611.688477,622.753784 608.651489,613.601501 611.556702,605.614929 
	C614.689636,597.002014 622.028931,592.641052 631.596680,593.707275 
	C639.490173,594.586914 645.307739,600.681824 646.511475,609.320129 
	C646.580017,609.811646 646.728271,610.292114 646.908325,611.184448 
z"/>
</svg>